<?xml version="1.0" standalone="no"?>
<!DOCTYPE svg PUBLIC "-//W3C//DTD SVG 1.1//EN" "http://www.w3.org/Graphics/SVG/1.1/DTD/svg11.dtd">
<svg xmlns="http://www.w3.org/2000/svg">
<metadata>Generated by Fontastic.me</metadata>
<defs>
<font id="kyc" horiz-adv-x="512">
<font-face font-family="kyc" units-per-em="512" ascent="480" descent="-32"/>
<missing-glyph horiz-adv-x="512" />

<glyph unicode="&#65;" d="M256 496c132 0 240-108 240-240 0-132-108-240-240-240-132 0-240 108-240 240 0 132 108 240 240 240m0 16c-141 0-256-115-256-256 0-141 115-256 256-256 141 0 256 115 256 256 0 141-115 256-256 256z m-5-417c-2 0-4 1-6 2l-124 121c-3 3-3 8 0 11 3 3 8 3 11 0l124-120c4-3 4-8 1-12-2-1-4-2-6-2z m0 0c-1 0-2 0-3 1-4 1-6 6-4 10l134 306c2 4 7 6 11 4 4-1 5-6 4-10l-135-306c-1-3-4-5-7-5z"/>
<glyph unicode="&#83;" d="M256 496c132 0 240-108 240-240 0-132-108-240-240-240-132 0-240 108-240 240 0 132 108 240 240 240m0 16c-141 0-256-115-256-256 0-141 115-256 256-256 141 0 256 115 256 256 0 141-115 256-256 256z m-104-344c-4 0-8 4-8 8l0 60c0 10 11 10 18 10 42 8 75 40 75 73 0 44-48 64-96 64-4 0-8 4-8 8 0 5 4 8 8 8 66 0 112-33 112-80 0-42-38-79-89-89-2 0-3 0-4 0l0-54c0-4-4-8-8-8z m160 0c-4 0-8 4-8 8l0 60c0 10 11 10 17 10 43 8 74 39 74 73 0 44-47 64-95 64-4 0-8 4-8 8 0 5 4 8 8 8 66 0 111-33 111-80 0-42-37-79-88-89-1 0-2 0-3 0l0-54c0-4-4-8-8-8z m8-40c0-4-4-8-8-8-4 0-8 4-8 8 0 4 4 8 8 8 4 0 8-4 8-8z m-160 0c0-4-4-8-8-8-4 0-8 4-8 8 0 4 4 8 8 8 4 0 8-4 8-8z"/>
<glyph unicode="&#68;" d="M256 496c132 0 240-108 240-240 0-132-108-240-240-240-132 0-240 108-240 240 0 132 108 240 240 240m0 16c-141 0-256-115-256-256 0-141 115-256 256-256 141 0 256 115 256 256 0 141-115 256-256 256z m-34-336l-16 0-88 126-2 0 0-77 0-49-14 0 1 44 0 106 15 0 89-125 2 0 0 125 14 1-1-108z m23-34l-11 0-2 2 62 237 12 0 1-1z m161 34l-4 14-11 30-72 0-11-30-4-14-16 0 61 150 17 0 55-150z m-48 134l-2 0-31-78 30 0 32 0z"/>
<glyph unicode="&#60;" d="M384 0l-256 256 256 256z"/>
<glyph unicode="&#71;" d="M423 81c-2 0-4 0-5 2l-335 335c-3 3-3 8 0 11 3 3 8 3 11 0l335-335c3-3 3-8 0-11-1-2-4-2-6-2z m-334 0c-2 0-5 0-6 2-3 3-3 8 0 11l335 335c3 3 8 3 11 0 3-3 3-8 0-11l-335-335c-1-2-3-2-5-2z"/>
<glyph unicode="&#72;" d="M251 85c-2 0-4 1-6 3l-132 128c-3 3-3 8 0 11 3 3 8 3 11 0l132-128c3-3 3-8 0-11-1-2-3-3-5-3z m0 0c-1 0-3 1-4 1-4 2-5 7-4 11l143 325c2 4 7 6 11 4 4-2 6-7 4-11l-143-325c-1-3-4-5-7-5z"/>
<glyph unicode="&#74;" d="M432 208l-64 0c-1 0-2 0-3-1l-85 49 85 49c1-1 2-1 3-1l64 0c4 0 8 4 8 8 0 4-4 8-8 8l-41 0 29 17c4 2 6 7 3 11-2 4-7 5-11 3l-29-17 17 29c2 4 1 9-3 11-4 3-9 1-11-3l-31-53-83-48 0 96 31 53c2 4 1 9-3 11-4 3-9 1-11-3l-17-29 0 34c0 4-4 8-8 8-4 0-8-4-8-8l0-34-17 29c-2 4-7 6-11 3-4-2-5-7-3-11l31-53 0-96-83 48-31 53c-2 4-7 6-11 3-4-2-5-7-3-11l17-29-29 17c-4 2-9 1-11-3-3-4-1-9 3-11l29-17-41 0c-4 0-8-4-8-8 0-4 4-8 8-8l64 0c1 0 2 0 3 1l85-49-85-49c-1 1-2 1-3 1l-64 0c-4 0-8-4-8-8 0-4 4-8 8-8l41 0-29-17c-4-2-6-7-3-11 1-3 4-4 7-4 1 0 2 0 4 1l29 17-17-29c-2-4-1-9 3-11 1-1 3-1 4-1 3 0 5 1 7 4l31 53 83 48 0-96-31-53c-2-4-1-9 3-11 1-1 3-1 4-1 3 0 5 1 7 4l17 29 0-34c0-4 4-8 8-8 4 0 8 4 8 8l0 34 17-29c2-3 4-4 7-4 1 0 3 0 4 1 4 2 5 7 3 11l-31 53 0 96 83-48 31-53c2-3 4-4 7-4 1 0 3 0 4 1 4 2 5 7 3 11l-17 29 29-17c2-1 3-1 4-1 3 0 6 1 7 4 3 4 1 9-3 11l-29 17 41 0c4 0 8 4 8 8 0 4-4 8-8 8z"/>
<glyph unicode="&#75;" d="M232 232c-4 0-8 4-8 8l0 144c0 4 4 8 8 8 4 0 8-4 8-8l0-144c0-4-4-8-8-8z m169-110c-2 0-3 1-5 1l-168 109c-4 2-5 7-3 11 3 4 8 5 11 2l169-108c4-3 5-7 2-11-1-3-4-4-6-4z"/>
<glyph unicode="&#62;" d="M128 0l256 256-256 256z"/>
<glyph unicode="&#117;" d="M248 72c-4 0-8 4-8 8l0 256c0 4 4 8 8 8 4 0 8-4 8-8l0-256c0-4-4-8-8-8z m73 176c-3 0-5 1-6 3l-73 80c-3 3-3 8 1 11 3 3 8 3 11-1l73-80c3-3 2-8-1-11-1-1-3-2-5-2z m31 168l-208 0c-4 0-8 4-8 8 0 4 4 8 8 8l208 0c4 0 8-4 8-8 0-4-4-8-8-8z m-177-168c-2 0-4 1-5 2-4 3-4 8-1 11l73 80c3 4 8 4 11 1 3-3 4-8 1-11l-73-80c-2-2-4-3-6-3z"/>
<glyph unicode="&#108;" d="M384 320l-192 0c-4 0-8 4-8 8 0 4 4 8 8 8l192 0c4 0 8-4 8-8 0-4-4-8-8-8z m-240 0l-32 0c-4 0-8 4-8 8 0 4 4 8 8 8l32 0c4 0 8-4 8-8 0-4-4-8-8-8z m240-80l-192 0c-4 0-8 4-8 8 0 4 4 8 8 8l192 0c4 0 8-4 8-8 0-4-4-8-8-8z m-240 0l-32 0c-4 0-8 4-8 8 0 4 4 8 8 8l32 0c4 0 8-4 8-8 0-4-4-8-8-8z m240-80l-192 0c-4 0-8 4-8 8 0 4 4 8 8 8l192 0c4 0 8-4 8-8 0-4-4-8-8-8z m-240 0l-32 0c-4 0-8 4-8 8 0 4 4 8 8 8l32 0c4 0 8-4 8-8 0-4-4-8-8-8z"/>
<glyph unicode="&#116;" d="M512 128l-256 256-256-256z"/>
<glyph unicode="&#109;" d="M256 512c0 0 0 0 0 0 0 0 0 0 0 0 0 0 0 0 0 0 0 0 0 0 0 0 0 0-1 0-1 0 0 0 0 0 0 0 0 0 0 0 0 0 0 0 0 0 0 0 0 0 0 0 0 0 0 0 0 0 0 0 0 0 0 0 0 0 0 0 0 0 0 0 0 0 0 0 0 0 0 0 0 0 0 0-1 0-1 0-1 0 0 0 0 0 0 0 0 0 0 0 0 0 0 0 0 0 0 0 0 0 0 0 0 0 0 0 0 0 0 0 0 0 0 0 0 0 0 0 0 0 0 0 0 0 0 0 0 0 0 0 0 0 0 0-1 0-1 0-1 0 0 0 0 0 0 0 0 0 0 0 0 0 0 0 0 0 0 0 0 0 0 0 0 0 0 0 0 0 0 0 0 0 0 0 0 0 0 0 0 0 0 0 0 0 0 0 0 0 0 0 0 0-1 0 0 0 0 0 0 0 0 0 0 0 0 0 0 0 0 0 0 0 0 0 0 0 0 0 0 0 0 0 0 0 0 0 0 0 0 0 0 0 0 0 0 0 0 0 0 0 0 0 0 0 0 0 0 0 0 0 0 0-1 0 0 0 0 0 0 0 0 0 0 0 0 0 0 0 0 0 0 0 0 0 0 0 0 0 0 0 0 0 0 0 0 0 0 0 0 0 0 0 0 0 0 0 0 0 0 0 0 0 0 0 0 0 0 0-1 0-1 0-1 0 0 0 0 0 0 0 0 0 0 0 0 0 0 0 0 0 0 0 0 0 0 0 0 0 0 0 0 0 0 0 0 0 0 0 0 0 0 0-1 0-1 0l0 0c0 0 0 0 0 0 0 0 0 0 0 0-5 0-9 0-14-1 0 0 0 0 0 0 0 0 0 0 0 0 0 0 0 0 0 0 0 0 0 0 0 0 0 0 0 0 0 0l2-21c6 0 12 1 19 1z m-63-8c-7-2-14-4-21-6l7-20c6 2 13 4 19 5z m-60-23c-4-3-8-5-12-7 0 0 0 0 0 0 0-1 0-1 0-1 0 0 0 0 0 0 0 0 0 0 0 0-1 0-1 0-1 0 0 0 0 0 0 0 0 0 0 0 0 0 0 0 0 0 0 0 0 0 0 0 0 0 0 0 0 0 0 0 0 0 0 0 0 0 0 0 0 0 0 0-1 0-1-1-1-1 0 0 0 0 0 0 0 0 0 0 0 0 0 0 0 0 0 0 0 0 0 0 0 0 0 0 0 0 0 0 0 0 0 0 0 0 0 0 0 0 0 0 0 0 0 0 0 0 0 0 0 0 0 0-1 0-1 0-1 0 0 0 0 0 0 0 0 0 0 0 0 0 0 0 0 0 0 0 0 0 0 0 0 0 0 0 0 0 0 0 0 0 0 0 0-1 0 0 0 0 0 0 0 0 0 0 0 0-1 0-1 0-1 0 0 0 0 0 0 0 0 0 0 0 0 0-1-1-1-1-2-1l12-18c5 3 11 7 17 10z m-51-38c0 0 0 0 0 0-1 0-1 0-1 0 0 0 0 0 0 0 0 0 0 0 0 0 0 0 0 0 0 0 0 0 0 0 0 0 0 0 0 0 0 0 0 0 0 0 0 0 0-1 0-1 0-1 0 0 0 0 0 0-1 0-1 0-1 0 0 0 0 0 0 0 0 0 0 0 0 0 0 0 0 0 0 0 0 0 0 0 0 0 0 0 0 0 0 0 0 0 0 0 0 0 0-1 0-1 0-1 0 0 0 0-1 0 0 0 0 0 0 0 0 0 0 0 0 0 0 0 0 0 0 0 0 0 0 0 0 0 0 0 0 0 0 0 0 0 0 0 0 0 0 0 0 0 0 0 0 0 0 0 0 0 0 0 0 0 0 0 0 0 0-1 0-1-1 0-1 0-1 0 0 0 0 0 0 0 0 0 0 0 0 0 0 0 0 0 0 0 0 0 0 0 0 0 0 0 0 0 0 0 0 0 0 0 0 0 0 0 0 0 0 0 0 0 0 0 0 0 0 0 0 0 0 0 0 0 0 0 0 0 0 0 0 0 0 0 0 0 0 0 0 0 0 0 0 0 0 0 0 0 0 0-1-1 0 0 0 0 0 0 0 0 0 0 0 0 0 0 0 0 0 0 0 0 0 0 0 0 0 0 0 0 0 0 0 0 0 0 0 0 0 0 0 0 0 0 0 0 0 0 0 0 0 0 0 0 0 0 0 0 0 0 0 0 0 0 0 0 0 0 0 0 0 0 0 0 0 0 0 0 0 0 0 0 0 0-1 0 0-1 0-1 0-1 0 0 0 0 0 0 0 0 0 0 0 0 0 0 0 0 0 0 0 0 0 0 0 0 0 0 0 0 0 0 0 0-1-1-1-1 0 0 0 0 0 0 0 0 0 0 0 0-2-2-4-4-6-6 0 0 0 0 0 0 0 0 0 0 0 0 0 0 0 0 0 0 0 0 0 0 0 0 0 0 0 0 0 0 0-1 0-1 0-1 0 0 0 0 0 0-1 0-1 0-1 0 0 0 0 0 0 0 0 0 0 0 0 0 0 0 0 0 0 0 0 0 0 0 0 0 0 0 0 0 0 0 0 0 0 0 0 0 0 0 0 0 0 0 0 0 0 0 0 0 0 0 0-1 0-1 0 0 0 0 0 0 0 0 0 0 0 0 0 0 0 0-1 0 0 0 0 0 0 0 0 0 0 0 0 0 0 0 0 0 0 0 0 0 0 0 0 0 0 0 0 0 0 0 0 0 0-1 0-1l15-14c5 5 9 9 14 14z m-41-49c-1-1-2-2-2-3 0 0 0 0 0 0 0 0 0 0 0 0 0 0 0 0 0 0 0 0-1 0-1 0 0 0 0 0 0 0 0 0 0 0 0 0 0 0 0 0 0 0 0 0 0 0 0 0 0 0 0 0 0-1 0 0 0 0 0 0 0 0 0 0 0 0l0 0c0 0 0 0 0 0-3-4-5-8-7-12 0 0 0 0 0 0 0 0 0 0 0 0 0 0 0-1 0-1 0 0 0 0 0 0 0 0 0 0 0 0 0 0-1 0-1 0 0 0 0 0 0 0 0 0 0 0 0 0 0 0 0 0 0 0 0 0 0 0 0 0 0 0 0 0 0 0 0 0 0 0 0 0 0 0 0 0 0 0 0 0 0 0 0 0 0-1 0-1 0-1 0 0 0 0 0 0 0 0 0 0 0 0 0 0 0 0 0 0 0 0 0 0 0 0l19-10c3 6 6 11 9 17z m-28-57c0-1-1-3-1-4 0 0 0 0 0 0 0 0 0 0 0 0 0 0 0 0 0 0 0 0 0 0 0 0 0 0 0 0 0 0 0 0 0 0 0 0l0 0c0 0 0-1 0-1 0 0 0 0 0 0 0 0 0 0 0 0 0 0 0 0 0 0 0 0 0 0 0 0 0 0 0 0-1 0 0 0 0 0 0 0 0 0 0 0 0 0 0 0 0 0 0 0 0 0 0 0 0 0 0 0 0 0 0-1 0 0 0 0 0 0 0 0 0 0 0 0 0 0 0 0 0 0 0 0 0 0 0 0 0 0 0 0 0 0 0 0 0 0 0 0 0 0 0 0 0 0 0 0 0 0 0 0 0 0 0 0 0 0 0 0 0 0 0 0 0-1 0-1 0-1 0 0 0 0 0 0 0 0 0 0 0 0 0 0 0 0 0 0 0 0 0 0 0 0 0 0 0 0 0 0 0 0 0 0 0 0 0 0 0 0 0 0 0 0 0 0 0 0 0 0 0 0 0 0 0 0 0 0 0 0 0-1 0-1 0-1 0 0 0 0 0 0 0 0 0 0 0 0 0 0 0 0 0 0 0 0 0 0 0 0 0 0 0 0 0 0 0 0 0 0 0 0 0 0 0 0 0 0 0 0-1 0-1 0 0 0 0 0 0 0 0 0 0-1 0-1 0 0 0 0 0 0 0 0 0 0 0 0 0 0 0 0 0 0 0 0 0 0 0 0 0 0 0 0 0 0 0 0 0 0 0 0 0 0 0 0 0 0 0 0 0-1 0-1l0 0c0 0 0 0 0 0 0 0 0 0 0 0 0 0 0 0 0 0 0 0 0 0 0 0 0 0 0 0 0 0 0 0 0 0 0 0 0 0 0 0 0 0l0 0c0-1 0-1 0-1 0 0 0 0 0 0 0 0 0 0 0 0-1-3-2-7-3-10l21-5c1 7 3 13 5 19z m-12-63c-1-4-1-8-1-12l0 0c0 0 0 0 0 0 0 0 0 0 0 0 0 0 0 0 0 0 0 0 0 0 0 0 0 0 0 0 0-1 0 0 0 0 0 0 0 0 0 0 0 0 0 0 0 0 0 0 0 0 0 0 0 0 0 0 0 0 0 0 0 0 0 0 0 0 0 0 0 0 0 0 0-1 0-1 0-1 0 0 0 0 0 0 0 0 0 0 0 0 0 0 0 0 0 0 0 0 0 0 0 0 0 0 0 0 0 0 0 0 0 0 0 0 0 0 0 0 0 0 0 0 0 0 0 0 0 0 0 0 0-1 0 0 0 0 0 0 0 0 0 0 0 0 0 0 0 0 0 0 0 0 0 0 0 0 0 0 0 0 0 0 0 0 0 0 0 0 0 0 0 0 0 0 0 0 0 0 0 0 0 0 0 0 0 0 0 0 0-1 0-1 0 0 0 0 0 0 0 0 0 0 0 0 0 0 0 0 0 0 0 0 0 0 0 0 0 0 0 0 0 0 0 0 0 0 0 0l0 0c0 0 0 0 0 0 0 0 0 0 0 0 0-1 0-1 0-1 0 0 0 0 0 0 0 0 0 0 0 0 0 0 0 0 0 0 0 0 0 0 0 0 0 0 0 0 0 0 0 0 0 0 0 0 0 0 0 0 0 0 0 0 0 0 0 0 0-1 0-1 0-1 0 0 0 0 0 0l0 0c0 0 0 0 0 0 0 0 0 0 0 0 0 0 0 0 0 0 0 0 0 0 0 0 0 0 0 0 0 0 0 0 0 0 0 0 0 0 0 0 0 0 0-1 0-1 0-1 0 0 0 0 0 0 0 0 0 0 0 0 0 0 0 0 0 0 0 0 0 0 0 0 0 0 0 0 0 0 0 0 0 0 0 0 0 0 0 0 0 0 0 0 0 0 0 0 0 0 0 0 0-1 0 0 0 0 0 0 0 0 0 0 0 0 0 0 0 0 0 0l0 0c0 0 0 0 0 0l0 0c0 0 0 0 0 0 0 0 0 0 0 0 0 0 0 0 0-1 0 0 0 0 0 0 0 0 0 0 0 0 0 0 0 0 0 0l21 0 0 3c0 6 1 11 1 17z m24-60l-21-4c1-7 3-14 5-20l20 5c-1 6-3 13-4 19z m18-56l-20-8c3-7 6-13 10-20l18 11c-3 6-6 11-8 17z m30-49l-16-14c4-5 9-11 14-16l15 15c-4 5-9 10-13 15z m43-41l-13-17c3-2 6-5 10-7 0 0 0 0 0 0 0 0 0 0 0 0 0 0 0 0 0 0 0 0 0 0 0 0 0 0 0 0 0 0 0 0 0-1 0-1 0 0 0 0 0 0 0 0 0 0 0 0 0 0 0 0 0 0 0 0 0 0 1 0 0 0 0 0 0 0 0 0 0 0 0 0 0 0 0 0 0 0 0 0 0 0 0 0 0 0 0 0 0 0 0 0 0 0 0 0 0 0 0 0 0 0 0 0 0 0 0 0 0 0 0 0 0 0 0 0 0 0 1-1 0 0 0 0 0 0 2-1 3-2 5-3l12 18c-6 3-11 7-16 11z m50-29l-8-20c4-1 8-3 11-4 0 0 0 0 0 0 0 0 0 0 1 0 0 0 0 0 0 0 0 0 0 0 0 0 0 0 0 0 0 0 0 0 0 0 0 0 0 0 0 0 0 0 0 0 0 0 0 0 0 0 0 0 1 0 0 0 0 0 0 0 0 0 0 0 0 0 0 0 0 0 0 0 0 0 0-1 0-1 0 0 0 0 0 0 0 0 0 0 0 0 0 0 0 0 0 0 0 0 0 0 0 0 0 0 0 0 0 0 0 0 0 0 0 0 1 0 1 0 1 0 0 0 0 0 0 0 0 0 0 0 0 0 0 0 0 0 0 0 2-1 4-1 6-2l7 20c-6 2-13 5-19 7z m57-15l-3-21c0 0 0 0 0-1 0 0 0 0 0 0 0 0 0 0 0 0 0 0 1 0 1 0 0 0 0 0 0 0 0 0 0 0 0 0 0 0 0 0 0 0 0 0 1 0 1 0 0 0 0 0 0 0 0 0 0 0 0 0 0 0 0 0 0 0 0 0 0 0 1 0 0 0 0 0 0 0 0 0 0 0 0 0 0 0 0 0 0 0 0 0 0 0 0 0 0 0 0 0 0 0 0 0 0 0 1 0 0 0 0 0 0 0 0 0 0 0 0 0 0 0 0 0 0 0 0 0 0 0 0 0 0 0 0 0 0 0 0 0 0 0 0 0 0 0 0 0 0 0 0 0 0 0 0 0 1 0 1 0 1 0 0 0 0 0 0 0 0 0 0 0 0 0 0 0 0 0 0 0 0 0 0 0 0 0 0 0 0 0 0 0 0 0 0 0 0 0 0 0 0 0 0 0 0 0 0 0 0 0 0 0 0 0 0 0 0 0 0 0 1 0 0 0 0 0 0 0 0 0 0 0 0 0 0 0 0 0 0 0 0 0 0 0 0 0 0 0 0 0 0 0 0 0 0 0 0 0 0 0 0 0 0 0 0 0 0 0 0 0 0 0 0 0 0 0 0 0 0 0 0 0 1 0 1 0 1 0 0 0 0 0 0 0 0 0 0 0 0 0 0 0 0 0 0 0 0 0 0 0 0 0 0 0 0 0 0 0 0 0 0 0 0 0 0 0 0 0 0 0 0 0 0 0 0 0 0 0 0 0 0 0 1 0 1 0 1 0 0 0 0 0 0 0 0-1 0-1 0-1 0 0 0 0 0 0 0 0 0 0 0 0 0 0 0 0 0 0 0 0 0 0 0 0 0 0 0 0 0 0 1 0 1 0 1 0 0 0 0 0 0 0 0 0 0 0 0 0 0 0 0 0 0 0 0 0 0 0 0 0 0 0 0 0 0 0 0 0 0 0 0 0 0 0 0 0 0 0 1 0 1 0 1 0 0 0 0 0 0 0 0 0 0 0 0 0 0 0 0 0 0 0 0 0 0 0 0 0 0 0 0 0 0 0 0 0 1 0 1 0 0 0 0 0 0 0 0 0 0 0 0 0 0 0 0 0 0 0 0 0 0 0 0 0 0 0 1 0 1 0 0 0 0 0 0 0 0 0 0 0 0 0 0 0 0 0 1 0 0 0 0 0 0 0 0 0 0 0 0 0 0 0 0 0 0 0 0 0 0 0 0 0 0 0 0 0 1 0 0 0 0 0 0 0 0 0 0 0 0 0 0 0 0 0 0 0 0 0 0 0 0 0 0 0 0 0 0 0 0 0 1 0 1 0 0 0 0 0 0 0 0 0 0 0 0 0 0 0 0 0 0 0 0 0 0 0 0 0 0 0 0 0 0 0 0 0 0 0 0 0 0 0 1 0 1 0 0 0 0 0 0 0 0 0 0 0 0 0 0 0 0 0 0 0 0 0 0 0 0 0 0 0 0 0 0 0 0 0 0 0 0 0 0 0 0 0 0 0 0 0 0 0 0 0 0 0 0 0 0 0 0 0 1 0 1 0 0 0 0 0 0 0 0 0 0 0 0 0 0 0 0 0 0 0 0 0 0 0 0 0 0 0 0 0 0 0 0 0 0 0 0 0 0 0 0 0 0 0 0 0 0 0 0 0 0 0 0 0 0 0 0 0 1 0 1 0 0 0 0 0 0 0 0 0 0 0 0 0 0 0 0 0 0 0 0 0 0 0 0 0 0 0 0 0 0 0 0 0 0 0 0 0 0 0 0 0 0 0 1 0 1 0 1 0 0 0 0 0 0 0 0-1 0-1 0-1 1 0 1 0 2 0l1 22c-6 0-13 1-19 2z m78 2c-7-2-13-3-20-3l3-22c1 1 2 1 4 1 0 0 0 0 0 0 0 0 0 0 0 0 0 0 0 0 0 0 0 0 0 0 0 0 0 0 0 0 0 0 0 0 0 0 0 0 0 0 1 0 1 0 0 0 0 0 0 0 0 0 0 0 0 0 0 0 0 0 0 0 0 0 0 0 0 0 0 0 0 0 0 0 5 1 11 2 16 3z m55 18c-6-3-12-6-18-8l8-20c0 0 0 0 1 0 0 0 0 1 0 1 0 0 0 0 0 0 0 0 1 0 1 0l0 0c0 0 0 0 0 0 0 0 0 0 0 0 0 0 0 0 0 0 0 0 0 0 0 0 0 0 1 0 1 0 0 0 0 0 0 0 0 0 0 0 0 0 0 0 0 0 0 0 0 0 0 0 0 0 0 0 0 0 0 0 0 0 0 0 0 0 0 1 0 1 0 1 0 0 1 0 1 0 0 0 0 0 0 0 0 0 0 0 0 0 0 0 0 0 0 0 0 0 0 0 0 0 0 0 0 0 0 0 0 0 0 0 0 0l0 0c0 0 0 0 0 0 0 0 0 0 0 0 1 0 1 0 1 0 0 0 0 0 0 0 0 0 0 0 0 0 0 0 0 0 0 0 0 0 0 0 0 0 0 0 0 0 0 0 0 0 0 0 0 0 0 0 0 0 0 0 0 0 0 0 1 1 0 0 0 0 0 0 0 0 0 0 0 0 0 0 0 0 0 0 0 0 0 0 0 0 0 0 0 0 0 0 0 0 0 0 0 0 0 0 0 0 0 0 0 0 0 0 0 0 0 0 0 0 0 0 0 0 0 0 1 0 0 0 0 0 0 0 0 0 0 0 0 0 0 0 0 0 0 0 0 0 0 0 0 0 0 0 0 0 0 0 0 0 0 0 0 0 0 0 0 0 0 0 0 0 0 0 0 0 0 0 0 0 1 0 0 0 0 0 0 0 0 0 0 0 0 0 0 0 0 0 0 0 0 1 0 1 0 1 0 0 0 0 0 0 0 0 0 0 0 0 0 0 0 0 0 0 0 0 0 0 0 0l0 0c0 0 1 0 1 0 0 0 0 0 0 0 0 0 0 0 0 0 0 0 0 0 0 0 0 0 0 0 0 0 0 0 0 0 0 0 0 0 0 0 0 0 0 0 1 0 1 0 0 0 0 0 0 0 0 0 0 0 0 0l0 0c0 1 0 1 0 1 0 0 0 0 0 0 0 0 1 0 1 0 0 0 0 0 0 0 0 0 0 0 0 0 0 0 0 0 0 0 0 0 0 0 0 0 0 0 1 0 1 0 0 0 0 0 0 0 0 0 0 0 0 0 0 0 0 0 0 0 0 1 1 1 1 1 0 0 0 0 0 0 0 0 0 0 0 0 0 0 1 0 1 0 0 0 0 0 0 0 1 1 2 1 3 2 1 0 1 0 1 0 0 0 0 0 0 0 1 0 1 1 1 1z m50 31c-5-4-11-8-16-12l12-17c1 0 2 1 2 1 0 0 0 0 0 0 0 0 0 0 0 0 0 0 1 0 1 0 0 0 0 0 0 0 0 1 0 1 0 1 0 0 0 0 0 0 0 0 0 0 0 0 0 0 0 0 0 0 0 0 0 0 0 0 0 0 0 0 0 0 0 0 0 0 0 0 0 0 0 0 0 0 1 0 1 0 1 0 0 0 0 0 0 0 0 0 0 0 0 0 0 0 0 0 0 0 0 0 0 0 0 1 0 0 0 0 0 0 0 0 0 0 0 0 0 0 0 0 0 0 0 0 0 0 0 0 0 0 0 0 0 0 0 0 0 0 0 0 0 0 0 0 0 0 0 0 0 0 0 0 1 0 1 0 1 0 0 0 0 0 0 0 0 0 0 0 0 0 0 0 0 0 0 0 0 0 0 0 0 0 0 0 0 0 0 0 0 0 0 0 0 0 0 0 0 0 0 1 0 0 0 0 0 0 0 0 0 0 0 0 0 0 0 0 0 0 0 0 0 0 0 0 0 0 0 0 0 0 1 0 1 0 1 0 0 0 0 0 0 0 0 0 0 0 0 0 0 0 0 0 0 0 0 0 0 0 0 0 0 0 0 0 0 0 0 0 0 0 0 0 0 0 0 0 0 0 1 1 1 1 1 1 0 0 0 0 0 0 0 0 0 0 0 0 0 0 0 0 0 0 2 1 3 2 4 3 0 0 1 1 1 1 0 0 0 0 0 0 0 0 0 0 0 0 0 0 0 0 0 0 0 0 0 0 0 0 0 0 0 0 0 0 0 0 0 0 0 0 0 0 0 0 0 0 0 0 0 0 0 0 1 0 1 0 1 0 0 0 0 0 0 0 0 0 0 0 0 1 0 0 0 0 0 0 0 0 0 0 0 0 0 0 0 0 0 0 0 0 0 0 0 0 0 0 0 0 0 0 0 0 0 0 0 0 0 0 0 0 0 0 0 0 0 0 0 0 0 0 0 0 0 0 1 0 1 0 1 0 0 0 0 0 0 0 0 0 0 0 0 0 0 0 0 0 0 0 0 0 0 0 0 0 0 0 0 0 0 0 0 0 0 0 0 0 0 0 0 1 0 1l0 0c0 0 0 0 0 0 1 0 2 1 3 2z m40 43c-4-5-8-11-12-15l16-14c0 0 1 1 1 2 0 0 0 0 0 0 1 0 1 0 1 0 0 0 0 0 0 0 0 0 0 0 0 0 0 0 0 0 0 0 0 0 0 0 0 0 0 0 0 1 0 1 0 0 0 0 0 0 0 0 0 0 0 0 0 0 0 0 0 0 0 0 0 0 0 0 0 0 0 0 0 0 0 0 0 0 0 0 1 0 1 0 1 0 0 0 0 0 0 0 0 0 0 0 0 0 0 0 0 0 0 0 0 0 0 0 0 0 0 1 0 1 0 1 0 0 0 0 0 0 0 0 0 0 0 0 0 0 0 0 0 0 0 0 0 0 0 0 0 0 0 0 0 0 0 0 0 0 0 0 0 0 0 0 0 0 0 0 0 0 0 0 0 0 0 0 1 0 0 0 0 0 0 0 0 0 0 0 0 0 0 0 0 0 0 1 0 0 0 0 0 0 0 0 0 0 0 0 0 0 0 0 0 0 0 0 0 0 0 0 0 0 0 0 0 0 0 0 0 0 0 0 0 0 0 0 0 0 0 0 0 0 0 0 0 0 0 0 0 0 0 0 0 0 0 0 0 0 0 0 0 0 0 0 0 0 0 0 0 0 0 0 0 1 0 0 0 0 0 0 0 0 1 0 1 0 0 0 0 0 0 0 0 0 0 0 0 0 0 0 0 0 0 0 0 0 0 0 0 0 0 0 0 0 0 0 0 0 0 0 0 0 0 0 0 0 0 0 0 0 0 0 0 0 0 0 0 0 0 0 0 0 0 0 0 0 0 0 0 0 0 0 0 1 0 1 0 1 0 0 0 0 0 0 0 0 0 0 0 0 0 0 0 0 0 0 0 0 0 0 0 0 0 0 0 0 0 0 0 0 0 0 1 0 0 0 0 0 0 0 0 0 0 0 0 0 0 0 0 0 0 0 0 0 0 0 0 0 0 0 0 0 0 0 0 0 0 0 0 0 0 1 0 1 0 1 0 0 0 0 0 0 0 0 0 0 0 0 0 0 0 0 0 0 0 0 0 0 0 0 0 0 0 0 0 0 0 0 0 0 0 0 0 0 0 0 0 0 0 0 0 0 0 0 0 0 0 0 0 0 0 0 0 0 0 0 1 0 1 0 1 0 0 0 0 0 0 0 0 1 0 1 0 1 0 0 0 0 0 0 0 0 0 0 0 0 0 0 0 0 0 0 0 0 0 0 0 0 0 0 0 0 0 0 0 0 0 0 0 0 0 0 0 0 0 0 0 0 0 0 0 0 0 0 0 0 0 0 0 0 0 0 0 0 0 0 0 0 0 0 0 0 0 0 0 0 0 1 0 1 0 1 0 0 0 0 0 0 0 0 0 0 0 0 0 0 0 0 1 0 0 0 0 0 0 0 0 0 0 0 0 0 0 0 0 0 0 0 0 0 0 0 0 0 0 0 0 0 0 0 0 0 0 0 0 0 0 0 0 0 0 1 0 0 0 0 0 0 0 0 0 0 0 0 0 0 0 0 0 0 0 0 0 0 0 0 0 0 0 0 0 0 0 0 0 0 0 0 0 0 0 0 0 0 0 0 1 0 1 0 0 0 0 1 0 1l0 0c0 0 0 0 0 0 0 0 0 0 0 0 1 1 2 3 3 4z m28 51c-2-6-5-12-8-18l19-9c2 4 5 9 7 14 0 0 0 0 0 0 0 0 0 0 0 0 0 1 0 1 0 1 0 0 0 0 0 0 0 0 0 0 0 0 0 0 0 0 0 0 0 0 0 0 0 0 0 0 0 0 0 0l0 0c1 1 1 3 2 4z m15 57c-1-7-2-13-4-20l21-4c1 4 2 9 3 13l0 0c0 0 0 0 0 0 0 0 0 0 0 0 0 0 0 0 0 0 0 0 0 0 0 0 0 1 0 1 0 1 0 0 0 0 0 0 0 0 0 0 0 0 0 0 0 0 0 0 0 0 0 0 0 0 0 0 0 0 0 0 0 0 0 0 0 0 0 0 0 0 0 0 0 0 0 1 0 1 0 0 0 0 0 0 0 0 0 0 0 0 0 0 0 0 0 0 0 0 0 0 0 0 0 0 0 0 0 0l0 0c0 0 0 0 0 0 0 2 1 4 1 6z m21 61l-21-3c1-6 1-13 1-19l22 0c0 8-1 15-2 22z m-15 62l-20-8c2-6 4-12 6-19l21 7c0 0 0 0 0 0 0 0 0 0-1 0 0 0 0 0 0 0 0 0 0 0 0 0l0 0c0 0 0 0 0 0 0 0 0 0 0 0 0 0 0 0 0 0 0 0 0 0 0 0 0 0 0 1 0 1 0 0 0 0 0 0 0 0 0 0 0 0 0 0 0 0 0 0 0 0 0 0 0 0 0 0 0 0 0 0 0 0 0 0 0 0 0 0 0 0 0 0 0 0 0 0 0 0 0 0 0 0 0 1 0 0 0 0 0 0 0 0 0 0 0 0 0 0 0 0 0 0 0 0 0 0 0 0l0 0c0 0 0 0 0 0 0 0 0 0 0 0 0 0 0 1 0 1 0 0 0 0 0 0 0 0 0 0 0 0-2 6-4 11-6 17z m-31 56l-17-13c4-5 7-10 11-16l18 11c-1 1-2 3-2 4l0 0c0 0 0 0 0 0 0 0 0 0-1 0 0 0 0 0 0 0 0 0 0 0 0 0 0 0 0 1 0 1 0 0 0 0 0 0 0 0 0 0 0 0 0 0 0 0 0 0 0 0 0 0 0 0 0 0 0 0 0 0 0 0 0 0 0 0 0 0 0 0 0 0 0 0 0 0 0 0 0 0 0 0 0 0 0 1 0 1 0 1 0 0 0 0 0 0 0 0 0 0 0 0 0 0 0 0 0 0 0 0 0 0-1 0 0 0 0 0 0 0 0 0 0 0 0 0 0 0 0 0 0 0 0 0 0 0 0 0 0 0 0 0 0 0 0 0 0 0 0 0 0 0 0 0 0 1 0 0 0 0 0 0 0 0 0 0 0 0 0 0 0 0 0 0 0 0 0 0 0 0 0 0 0 0 0 0 0 0 0 0 0 0 0 0 0 0 0 0 0 0 0 0 0 0 0 0 0 0 0 0 0 0 0 0 0 1 0 0 0 0 0 0 0 0-1 0-1 0 0 0 0 0 0 0 0 0 0 0 0 0 0 0 0 0 0 0 0 0 0 0 0 0 0 0 0 0 0 0 0 0 0 0 0 0 0 0 0 0 0 0 0 0 0 0 0 1 0 0 0 0 0 0 0 0 0 0 0 0 0 0 0 0 0 0 0 0 0 0 0 0 0 0 0 0 0 0 0 0 0 0 0 0 0 0 0 0 0 0 0 0-1 0-1 0 0 0 0 0 0 0 0 0 0 0 0 0 0 1 0 1 0 1 0 0 0 0 0 0 0 0 0 0 0 0 0 0 0 0 0 0l0 0c0 0 0 0 0 0 0 0 0 0 0 0 0 0 0 0 0 0 0 0 0 0 0 0 0 0 0 0 0 0 0 0 0 0 0 0 0 0 0 0 0 0 0 0 0 0 0 0 0 0 0 0 0 1 0 0 0 0 0 0 0 0 0 0 0 0 0 0 0 0 0 0 0 0 0 0 0 0 0 0-1 0-1 0 0 0 0 0 0 0 0 0 0 0 0 0 0 0 0 0 0 0 0 0 0 0 0 0 0 0 0 0 0 0 0 0 0 0 0 0 0 0 0 0 0 0 0 1 0 1 0 1 0 0 0 0 0 0 0 0 0 0 0 0 0 0 0 0 0 0 0 0 0 0 0 0 0 0 0 0 0 0 0 0 0 0 0 0 0 0 0 0 0 0 0 0 0 0 0 0 0 0-1 1-1 1-1 1-2 3-4 5z m-43 47l-14-17c5-4 10-8 15-13l15 15c-1 1-2 2-3 3-1 0-1 1-1 1 0 0 0 0 0 0 0 0 0 0 0 0 0 0 0 0 0 0 0 0 0 0 0 0l0 0c0 0 0 0 0 0 0 0 0 0 0 0 0 0 0 0 0 0 0 0 0 0 0 0 0 0 0 0 0 0 0 0 0 0 0 0 0 0 0 0-1 0 0 1 0 1 0 1 0 0 0 0 0 0 0 0 0 0 0 0 0 0 0 0 0 0 0 0 0 0 0 0 0 0 0 0 0 0 0 0 0 0 0 0 0 0 0 0 0 0 0 0 0 0 0 0 0 0 0 0 0 0 0 0 0 0 0 0 0 0 0 0 0 0 0 0 0 0 0 0 0 0 0 0 0 0 0 0 0 0-1 1 0 0 0 0 0 0 0 0 0 0 0 0 0 0 0 0 0 0-3 3-7 6-10 9z m-54 35l-9-20c6-3 12-6 17-9l11 18c-4 3-8 5-12 7 0 0 0 0 0 0 0 0 0 0-1 1 0 0 0 0 0 0 0 0 0 0 0 0l0 0c0 0 0 0 0 0 0 0 0 0 0 0 0 0 0 0 0 0 0 0 0 0 0 0 0 0 0 0-1 0 0 0 0 0 0 0 0 0 0 0 0 0 0 0 0 0 0 0 0 0 0 0 0 0 0 0 0 0 0 0 0 0 0 0 0 0 0 0 0 0 0 0 0 0 0 0 0 0 0 0 0 0 0 0 0 0 0 0 0 0 0 0 0 0 0 1 0 0 0 0-1 0 0 0 0 0 0 0 0 0 0 0 0 0 0 0 0 0 0 0 0 0 0 0 0 0 0 0 0 0 0 0 0 0 0 0 0 0 0 0 0 0 0 0 0 0 0 0 0 0 0 0 0 0-1 0 0 0 0 0 0 0 0 0 0 0 0 0 0 0 0 0 0 0 0 0 0 0 0 0-1 1-2 1-3 2z m-60 20l-4-21c6-1 13-3 19-5l6 21c-5 1-10 3-15 4 0 0 0 0 0 0-1 0-1 0-1 0 0 0 0 0 0 0 0 0 0 0 0 0 0 0 0 0 0 0 0 0 0 0 0 0 0 0 0 0 0 0 0 0 0 0-1 0 0 0 0 0 0 0 0 0 0 0 0 0 0 0 0 0 0 0 0 0 0 0 0 0 0 0 0 0 0 0 0 0 0 0 0 0 0 0 0 0 0 0 0 0 0 0 0 0 0 0 0 0 0 0 0 0 0 0 0 0 0 0 0 0-1 0-1 0-2 1-3 1z m-51 5l0-21c3 0 5 0 8 0l1 21c-1 0-2 0-3 0 0 0 0 0 0 0 0 0 0 0 0 0 0 0 0 0 0 0 0 0 0 0 0 0 0 0-1 0-1 0 0 0 0 0 0 0 0 0 0 0 0 0 0 0 0 0 0 0 0 0 0 0 0 0 0 0 0 0 0 0 0 0 0 0 0 0 0 0 0 0 0 0 0 0 0 0 0 0 0 0 0 0 0 0 0 0 0 0 0 0-1 0-1 0-1 0 0 0 0 0 0 0 0 0 0 0 0 0 0 0 0 0 0 0 0 0 0 0 0 0 0 0 0 0 0 0 0 0 0 0 0 0 0 0 0 0 0 0 0 0 0 0 0 0 0 0 0 0-1 0 0 0 0 0 0 0 0 0 0 0 0 0 0 0 0 0 0 0 0 0 0 0 0 0 0 0 0 0 0 0 0 0 0 0 0 0 0 0 0 0 0 0 0 0 0 0 0 0 0 0 0 0 0 0 0 0-1 0-1 0 0 0 0 0 0 0 0 0 0 0 0 0 0 0 0 0 0 0 0 0 0 0 0 0 0 0 0 0 0 0 0 0 0 0 0 0 0 0 0 0 0 0 0 0 0 0 0 0 0 0 0 0 0 0 0 0-1 0-1 0 0 0 0 0 0 0 0 0 0 0 0 0 0 0 0 0 0 0 0 0 0 0 0 0 0 0 0 0 0 0 0 0 0 0 0 0 0 0 0 0 0 0 0 0 0 0 0 0 0 0-1 0-1 0 0 0 0 0 0 0 0 0 0 0 0 0z m128-277l-256 0c-12 0-21 9-21 21 0 12 9 21 21 21l256 0c12 0 21-9 21-21 0-12-9-21-21-21z m-128-128c-12 0-21 9-21 21l0 256c0 12 9 21 21 21 12 0 21-9 21-21l0-256c0-12-9-21-21-21z"/>
<glyph unicode="&#118;" d="M512 384l-256-256-256 256z"/>
<glyph unicode="&#102;" d="M208 112c-9 0-16 7-16 16l0 104 5 6c4 4 9 6 16 6 62 12 106 58 106 111 0 70-76 95-140 95-9 0-16 7-16 16 0 9 7 16 16 16 103 0 172-51 172-127 0-68-52-125-127-142l0-85c0-9-7-16-16-16z m19-62c0-10-8-19-18-19-11 0-19 9-19 19 0 10 8 19 19 19 10 0 18-9 18-19z m-19 62c-9 0-16 7-16 16l0 104 5 6c4 4 9 6 16 6 62 12 106 58 106 111 0 70-76 95-140 95-9 0-16 7-16 16 0 9 7 16 16 16 103 0 172-51 172-127 0-68-52-125-127-142l0-85c0-9-7-16-16-16z m19-62c0-10-8-19-18-19-11 0-19 9-19 19 0 10 8 19 19 19 10 0 18-9 18-19z m-19 62c-9 0-16 7-16 16l0 104 5 6c4 4 9 6 16 6 62 12 106 58 106 111 0 70-76 95-140 95-9 0-16 7-16 16 0 9 7 16 16 16 103 0 172-51 172-127 0-68-52-125-127-142l0-85c0-9-7-16-16-16z m19-62c0-10-8-19-18-19-11 0-19 9-19 19 0 10 8 19 19 19 10 0 18-9 18-19z"/>
<glyph unicode="&#97;" d="M249 16c-4 0-8 2-12 5l-182 176c-6 6-6 16 0 22 6 7 16 7 23 1l182-176c6-7 6-17 0-23-3-3-7-5-11-5z m0 0c-3 0-5 0-7 1-8 4-12 13-8 21l197 448c3 9 13 12 21 9 8-4 12-13 8-21l-197-448c-2-6-8-10-14-10z"/>
<glyph unicode="&#100;" d="M203 145l-23 0-126 178-1 0-1-109 1-69-20 0 1 63-1 150 23 0 126-178 2 0 0 178 19 1 0-152z m32-48l-16 0-2 3 88 336 16 0 2-2z m228 48l-5 20-16 42-101 0-17-42-6-20-21 0 85 213 24 0 79-213z m-68 191l-2 0-45-111 43-1 45 1z"/>
<glyph unicode="&#70;" d="M256 496c132 0 240-108 240-240 0-132-108-240-240-240-132 0-240 108-240 240 0 132 108 240 240 240m0 16c-141 0-256-115-256-256 0-141 115-256 256-256 141 0 256 115 256 256 0 141-115 256-256 256z m-40-392c-4 0-8 4-8 8l0 96 3 3c1 0 4 3 11 2 57 11 95 51 95 100 0 63-65 85-126 85-4 0-8 4-8 8 0 5 4 8 8 8 87 0 142-39 142-101 0-57-43-103-109-116l0-85c0-4-4-8-8-8z m8-40c0-4-4-8-8-8-4 0-8 4-8 8 0 4 4 8 8 8 4 0 8-4 8-8z"/>
<glyph unicode="&#114;" d="M256 512c-141 0-256-115-256-256 0-141 115-256 256-256 141 0 256 115 256 256 0 141-115 256-256 256z m139-335c17-17 17-44 0-60-8-9-19-13-30-13-11 0-22 4-30 13l-79 79-79-79c-8-9-19-13-30-13-11 0-22 4-30 13-17 16-17 43 0 60l79 79-79 79c-17 17-17 44 0 60 16 17 43 17 60 0l79-79 79 79c17 17 44 17 60 0 17-16 17-43 0-60l-79-79z"/>
<glyph unicode="&#115;" d="M112 112c-9 0-16 7-16 16l0 104 5 6c4 4 9 6 16 6 62 12 106 58 106 111 0 70-76 95-140 95-9 0-16 7-16 16 0 9 7 16 16 16 103 0 172-51 172-127 0-68-52-125-127-142l0-85c0-9-7-16-16-16z m19-62c0-10-8-19-18-19-11 0-19 9-19 19 0 10 8 19 19 19 10 0 18-9 18-19z m205 62c-9 0-16 7-16 16l0 104 5 6c4 4 9 6 16 6 62 12 106 58 106 111 0 70-76 95-140 95-9 0-16 7-16 16 0 9 7 16 16 16 103 0 172-51 172-127 0-68-52-125-127-142l0-85c0-9-7-16-16-16z m19-62c0-10-8-19-18-19-11 0-19 9-19 19 0 10 8 19 19 19 10 0 18-9 18-19z"/>
<glyph unicode="&#98;" d="M352 416l-208 0c-4 0-8 4-8 8 0 4 4 8 8 8l208 0c4 0 8-4 8-8 0-4-4-8-8-8z m-25-155l-73 80c0 0 0 0 0 0-1 1-1 1-2 2 0 0 0 0-1 0 0 0 0 0-1 1 0 0 0 0 0 0 0 0 0 0 0 0-1 0-1 0-2 0 0 0 0 0 0 0 0 0 0 0 0 0-1 0-2 0-2 0 0 0-1 0-1-1-1 0-2-1-3-2l-73-80c-3-3-3-8 1-11 1-1 3-2 5-2 2 0 4 1 6 3l59 65 0-124c0-4 4-8 8-8 4 0 8 4 8 8l0 123 59-64c1-2 3-3 6-3 2 0 4 1 5 2 3 3 4 8 1 11z m-73-126c4 9 10 10 17 10 6 0 12 0 17 0 12 0 21-8 21-20 0-22 0-44 0-66 0-4-2-6-5-6-3 0-6 0-9 0-5 0-6 2-6 6 0 17 0 33 0 49 0 5 0 10 0 16 0 2-1 3-3 3-6 0-12 0-18 0-3 0-3-1-3-4 0-21 0-42 0-63 0-5-2-7-7-7-3 0-5 0-8 0-4 0-5 2-5 6 0 21 0 42 0 63 0 5-1 5-5 5-5 0-10 0-16 0-3 0-4-1-4-4 0-21 0-42 0-63 0-5-1-7-6-7-3 0-6 0-9 0-3 0-5 2-5 6 0 22 0 44 0 66 0 10 7 19 17 20 9 1 18 0 26 0 6-1 10-4 11-10z m-68-29c0-11 0-22 0-32 0-10-7-20-18-21-11 0-22 0-32 1-10 0-18 8-18 19 0 22 0 44 0 67 0 3 2 5 5 5 3 0 6 0 9 0 5 0 6-1 6-6 0-21 0-42 0-63 0-4 0-5 5-5 6 0 12 0 18 0 5 0 5 0 5 5 0 21 0 42 0 63 0 4 2 6 6 6 3 0 6 0 9 0 4 0 5-2 5-6 0-11 0-22 0-33z m-81-11c0-14 0-29 0-44-1-8-5-15-12-18-3-1-6-1-8-1-5 0-10 0-15 0-4 0-6 2-6 6 0 2 0 4 0 6 0 4 2 5 5 5 4 0 8 0 11 0 4 0 4 0 4 4 0 28 0 56 0 85 0 6 1 7 7 7 3 0 5 0 7 0 5 0 7-2 7-6 0-15 0-29 0-44z m255 9c0 8-1 15 0 22 0 11 8 19 18 19 10 0 21 0 31 0 7 0 12-3 16-10 2-4 0-8-5-8-12 0-24 0-36 0-4 0-4 0-4-3 0-14 0-28 0-42 0-5-2-6-7-6-2-1-5-1-8 0-4 0-6 1-6 5 0 8 0 15 0 23 0 0 1 0 1 0z m67-9c0-7 0-14 0-21 0-12-8-21-20-21-9 0-19 0-28 0-7 0-13 3-17 10-3 4-1 8 4 8 13 0 25 0 37 0 4 0 4 0 4 4 0 14 0 28 0 42 0 4 2 6 6 6 3 0 6 0 9 0 3 0 5-2 5-5 0-8 0-16 0-23z m-82 4c0-14 0-27 0-40 0-5-1-6-6-6-3 0-6 0-9 0-3 0-5 2-5 6 0 23 0 47 0 70 0 3 0 7 0 10 0 4 2 6 5 6 3 0 6 0 10 0 4 0 5-2 5-6 0-13 0-27 0-40z m111 45c0-4-4-8-8-8-4 0-8 4-8 8 0 4 4 8 8 8 4 0 8-4 8-8z"/>
<glyph unicode="&#99;" d="M254 295c4 9 10 10 17 10 6 0 12 0 17 0 12 0 21-8 21-20 0-22 0-44 0-66 0-4-2-6-5-6-3 0-6 0-9 0-5 0-6 2-6 6 0 17 0 33 0 49 0 5 0 10 0 16 0 2-1 3-3 3-6 0-12 0-18 0-3 0-3-1-3-4 0-21 0-42 0-63 0-5-2-7-7-7-3 0-5 0-8 0-4 0-5 2-5 6 0 21 0 42 0 63 0 5-1 5-5 5-5 0-10 0-16 0-3 0-4-1-4-4 0-21 0-42 0-63 0-5-1-7-6-7-3 0-6 0-9 0-3 0-5 2-5 6 0 22 0 44 0 66 0 10 7 19 17 20 9 1 18 0 26 0 6-1 10-4 11-10z m-68-29c0-11 0-22 0-32 0-10-7-20-18-21-11 0-22 0-32 1-10 0-18 8-18 19 0 22 0 44 0 67 0 3 2 5 5 5 3 0 6 0 9 0 5 0 6-1 6-6 0-21 0-42 0-63 0-4 0-5 5-5 6 0 12 0 18 0 5 0 5 0 5 5 0 21 0 42 0 63 0 4 2 6 6 6 3 0 6 0 9 0 4 0 5-2 5-6 0-11 0-22 0-33z m-81-11c0-14 0-29 0-44-1-8-5-15-12-18-3-1-6-1-8-1-5 0-10 0-15 0-4 0-6 2-6 6 0 2 0 4 0 6 0 4 2 5 5 5 4 0 8 0 11 0 4 0 4 0 4 4 0 28 0 56 0 85 0 6 1 7 7 7 3 0 5 0 7 0 5 0 7-2 7-6 0-15 0-29 0-44z m255 9c0 8-1 15 0 22 0 11 8 19 18 19 10 0 21 0 31 0 7 0 12-3 16-10 2-4 0-8-5-8-12 0-24 0-36 0-4 0-4 0-4-3 0-14 0-28 0-42 0-5-2-6-7-6-2-1-5-1-8 0-4 0-6 1-6 5 0 8 0 15 0 23 0 0 1 0 1 0z m67-9c0-7 0-14 0-21 0-12-8-21-20-21-9 0-19 0-28 0-7 0-13 3-17 10-3 4-1 8 4 8 13 0 25 0 37 0 4 0 4 0 4 4 0 14 0 28 0 42 0 4 2 6 6 6 3 0 6 0 9 0 3 0 5-2 5-5 0-8 0-16 0-23z m-82 4c0-14 0-27 0-40 0-5-1-6-6-6-3 0-6 0-9 0-3 0-5 2-5 6 0 23 0 47 0 70 0 3 0 7 0 10 0 4 2 6 5 6 3 0 6 0 10 0 4 0 5-2 5-6 0-13 0-27 0-40z m111 45c0-4-4-8-8-8-4 0-8 4-8 8 0 4 4 8 8 8 4 0 8-4 8-8z"/>
<glyph unicode="&#101;" d="M504 497l-23 22-84-89c-39 31-88 50-141 50-124 0-224-100-224-224 0-57 22-110 57-149l-89-94 23-22 89 93c39-32 89-52 144-52 124 0 224 100 224 224 0 59-23 112-60 152z m-440-241c0 106 86 192 192 192 45 0 86-15 118-41l-263-277c-29 34-47 78-47 126z m384 0c0-106-86-192-192-192-46 0-89 16-122 44l264 277c31-34 50-79 50-129z"/>
<glyph unicode="&#69;" d="M256 496c132 0 240-108 240-240 0-132-108-240-240-240-132 0-240 108-240 240 0 132 108 240 240 240m0 16c-141 0-256-115-256-256 0-141 115-256 256-256 141 0 256 115 256 256 0 141-115 256-256 256z m126-135l-12 11-42-44c-19 15-43 25-70 25-62 0-112-51-112-112 0-29 11-55 29-75l-45-47 12-11 44 47c20-16 45-26 72-26 62 0 112 50 112 112 0 29-11 56-30 76z m-220-120c0 53 43 96 96 96 22 0 43-8 59-21l-131-138c-15 17-24 39-24 63z m192 0c0-53-43-96-96-96-23 0-44 8-61 21l132 139c15-17 25-40 25-64z"/>
<glyph unicode="&#103;" d="M224 288l-144 0 0 144 144 0z m-128 16l112 0 0 112-112 0z m336-16l-144 0 0 144 144 0z m-128 16l112 0 0 112-112 0z m-80-224l-144 0 0 144 144 0z m-128 16l112 0 0 112-112 0z m336-16l-144 0 0 144 144 0z m-128 16l112 0 0 112-112 0z"/>
<glyph unicode="&#87;" d="M256 127c-54 0-98 44-98 98 0 54 44 97 98 97 54 0 98-43 98-97 0-54-44-98-98-98z m0 180c-45 0-82-37-82-82 0-46 37-83 82-83 45 0 82 37 82 83 0 45-37 82-82 82z m0 65c94 0 179-79 239-153l20 0c-61 91-154 168-259 168-105 0-198-77-259-168l20 0c60 74 145 153 239 153z"/>
<glyph unicode="&#107;" d="M483 93l-454 0c-16 0-29 13-29 29l0 268c0 16 13 29 29 29l454 0c16 0 29-13 29-29l0-268c0-16-13-29-29-29z m-454 323c-14 0-26-12-26-26l0-268c0-14 12-26 26-26l454 0c14 0 26 12 26 26l0 268c0 14-12 26-26 26z m387-154c-2-2-6-3-10-3l-4 0 3 19 3 0c4 0 7-1 8-2 2-1 4-3 4-7 0-4-2-6-4-7m-264-23l-34 0 2 12 22 0 2 13-21 0 2 12 34 0z m282 47c-5 4-12 5-22 5l-26 0-10-52-34 0 2 12 21 0 2 13-21 0 3 12 21 0 3 15-44 0-9-50-16 0 10 50-23 0-9-50-16 0 10 50-23 0-10-52-34 0 2 12 21 0 2 13-20 0 2 12 21 0 3 15-134 0-8-42-15 42-24 0-12-68 22 0 8 43 14-43 81 0 9 53 13 0-10-53 211 0 6 33 10-33 22 0-10 27 2 1c6 1 10 3 12 7 3 3 5 8 5 14 0 6-3 11-8 14m19-55l3 0c1 0 1 0 1 1 1 0 1 0 1 0 0 1 0 1 0 1 0 1 0 1 0 1-1 1-1 1-2 1l-3 0z m-1-6l-1 11 5 0c1 0 2 0 2 0 1 0 1-1 1-1 1-1 1-1 1-2 0 0 0-1-1-2 0 0-1-1-2-1 0 0 1 0 1 0 0-1 1-1 1-2l2-2-2-1-1 3c-1 0-1 1-1 1-1 0-1 1-1 1 0 0 0 0-1 0 0 0 0 0 0 0l-2 0 0-5z m-5 5c0 2 1 5 2 6 2 2 4 3 6 3 5 0 8-3 9-8 0 0 0 0 0 0 0-5-4-8-8-9-5 0-9 4-9 8m8 11c-3 0-5-2-7-4-2-2-3-4-3-7 1-5 5-10 11-9 5 0 10 5 9 10 0 6-5 10-10 10"/>
<glyph unicode="&#110;" d="M483 93l-454 0c-16 0-29 13-29 29l0 268c0 16 13 29 29 29l454 0c16 0 29-13 29-29l0-268c0-16-13-29-29-29z m-454 323c-14 0-26-12-26-26l0-268c0-14 12-26 26-26l454 0c14 0 26 12 26 26l0 268c0 14-12 26-26 26z m300-126l21 4 0-79-21 0z m30 0l0-75 21 0 0 79z m-59-75l20 0 0 57-20 0z m-137 49c-2 0-8 1-8 6 0 7 9 7 12 7 6 0 13-2 18-4 0 0 3-1 6-2l0 0 0 18 0 0c-7 3-14 5-27 5-24 0-32-14-32-25 0-7 3-23 30-25 2 0 8 0 8-6 0-4-5-7-13-7-9 0-18 2-23 4l0-18c8-2 17-3 27-3 23 0 33 13 33 25 0 15-11 24-31 25z m125 9c-19 0-29-9-29-26l0-32 21 0 0 26c0 10 2 15 14 15l0 17c-2 0-6 0-6 0z m-56-1c0-1-4-10-12-20l0 42-21-5 0-74 21 0 0 23c7-10 10-23 10-23l25 0c-2 10-13 29-13 29 9 13 14 26 15 28l-25 0z m78 6c6 0 10 5 10 10 0 6-4 10-10 10-6 0-10-4-10-10 0-5 4-10 10-10z"/>
<glyph unicode="&#111;" d="M483 93l-454 0c-16 0-29 13-29 29l0 268c0 16 13 29 29 29l454 0c16 0 29-13 29-29l0-268c0-16-13-29-29-29z m-454 323c-14 0-26-12-26-26l0-268c0-14 12-26 26-26l454 0c14 0 26 12 26 26l0 268c0 14-12 26-26 26z m218-127l191 0 0-3-191 0z m0-51l72 0 0-3-72 0z m-53-58l-59 0 0 47-22 0 0-47-59 0 0 78-24 0 94 96 31-32 0 15 28 0 0-43 34-36-23 0 0-78z m-56 3l53 0 0 78 19 0-30 31 0 42-22 0 0-19-34 34-87-88 20 0 0-78 53 0 0 47 28 0z"/>
<glyph unicode="&#112;" d="M107 292c-1-2-2-4-2-7 0-3 1-5 3-7 2-1 5-3 9-5l2 27c-2-1-4-1-6-2-3-2-5-4-6-6z m19-36l-2-28c4 1 6 3 9 5 3 3 4 6 4 10 0 3-1 6-3 8-2 1-4 3-8 5z m357 163l-454 0c-16 0-29-13-29-29l0-268c0-16 13-29 29-29l454 0c16 0 29 13 29 29l0 268c0 16-13 29-29 29z m-343-194c-5-4-10-7-17-8l-2-22-7 0-3 3 1 19c-7 1-13 3-19 7l-1 1 0 8 5 1 2-1c4-3 9-5 14-5l3 33c-4 2-7 3-10 5-3 2-6 5-8 8-3 3-4 7-4 12 0 4 1 9 4 13 2 3 6 6 10 9 4 1 8 2 12 3l2 26 8 0 3-4-2-23c4 0 8-2 12-3l3-1-2-9-5-1-1 1c-2 1-5 2-8 2l-2-31c5-3 10-6 14-9 4-4 6-10 6-16 0-7-2-13-8-18z m182 6l-79 0 0 11 79 0z m119 51l-197 0 0 11 197 0z"/>
<glyph unicode="&#113;" d="M241 306c0-7-5-13-12-13-7 0-12 6-12 13 0 6 5 12 12 12 7 0 12-6 12-12m0-49c0-7-5-12-12-12-7 0-12 5-12 12 0 7 5 12 12 12 7 0 12-5 12-12m0-49c0-6-5-12-12-12-7 0-12 6-12 12 0 7 5 12 12 12 7 0 12-5 12-12m37 61c6 0 12-5 12-12 0-7-6-12-12-12-7 0-13 5-13 12 0 7 6 12 13 12m-37 85c0-6-5-12-12-12-7 0-12 6-12 12 0 7 5 12 12 12 7 0 12-5 12-12m0-194c0-7-5-13-12-13-7 0-12 6-12 13 0 6 5 12 12 12 7 0 12-6 12-12m85 109c7 0 12-5 12-12 0-7-5-12-12-12-6 0-12 5-12 12 0 7 6 12 12 12m-48-49c6 0 12-5 12-12 0-6-6-12-12-12-7 0-13 6-13 12 0 7 6 12 13 12m-1 98c7 0 12-5 12-12 0-7-5-12-12-12-6 0-12 5-12 12 0 7 6 12 12 12m-22 158c-121 0-219-98-219-217 0-120 98-217 219-217 120 0 218 97 218 217 0 119-98 217-218 217z m0-442c-125 0-227 101-227 225 0 124 102 225 227 225 125 0 226-101 226-225 0-124-101-225-226-225z"/>
<glyph unicode="&#119;" d="M483 93l-454 0c-16 0-29 13-29 29l0 268c0 16 13 29 29 29l454 0c16 0 29-13 29-29l0-268c0-16-13-29-29-29z m-454 323c-14 0-26-12-26-26l0-268c0-14 12-26 26-26l454 0c14 0 26 12 26 26l0 268c0 14-12 26-26 26z m207-208l-25 0 16 96 24 0z m-46 96l-23-66-3 14-9 43c0 0-1 9-11 9l-39 0-1-2c0 0 12-3 26-11l22-83 25 0 40 96z m195-96l23 0-20 96-20 0c-9 0-11-8-11-8l-37-88 26 0 5 14 31 0z m-27 34l13 36 7-36z m-36 39l3 20c0 0-11 4-22 4-12 0-42-5-42-31 0-25 35-25 35-38 0-13-31-11-41-3l-4-21c0 0 11-5 28-5 17 0 42 8 42 32 0 25-34 27-34 38 0 11 24 10 35 4z m-158-29l-9 43c0 0-1 9-11 9l-39 0-1-2c0 0 19-4 37-19 17-13 23-31 23-31z"/>
<glyph unicode="&#120;" d="M483 419l-454 0c-16 0-29-13-29-29l0-268c0-16 13-29 29-29l454 0c16 0 29 13 29 29l0 268c0 16-13 29-29 29z m-250-286l-3-2-2 1-65 26 0 7 2 2 1 1 65 29 4-8-2-2-1-2-52-23 56-22z m76 0l-3-2-2 1-64 26 0 7 1 2 2 1 65 29 3-8-1-2-2-2-51-23 55-22z m77 0l-3-2-2 1-65 26 0 7 2 2 1 1 65 29 4-8-2-2-2-2-51-23 55-22z m76 0l-3-2-2 1-64 26 0 7 1 2 1 1 65 29 4-8-2-2-1-2-52-23 56-22z"/>
<glyph unicode="&#121;" d="M321 251l19 0-6 25z m162 168l-454 0c-16 0-29-13-29-29l0-268c0-16 13-29 29-29l454 0c16 0 29 13 29 29l0 268c0 16-13 29-29 29z m-311-201l-18 76 11 0 1-8 12-49 30 57 12 0-40-76z m57 0l-10 0 9 76 11 0z m59 11c-2-3-5-6-9-8-4-2-8-3-13-3-7 0-13 2-18 6l-2 1 1 8 4 1 2-1c4-3 8-5 13-5 3 0 6 1 8 2 3 2 5 3 6 5 1 2 2 4 2 6 0 2-1 4-2 5-2 2-6 4-10 6-3 2-6 3-8 5-3 1-5 3-6 6-2 2-3 6-3 9 0 4 1 8 3 11 2 3 5 6 9 8 8 4 19 4 28 0l3-2-3-8-3 0-2 0c-6 3-13 4-18 1-2-1-4-3-5-4-1-2-2-4-2-6 0-2 1-4 2-5 2-2 5-3 9-6 4-1 7-3 9-4 2-2 4-4 6-6 2-3 3-7 3-10 0-4-1-8-4-12z m59-11l-1 8-4 15-27 0-11-23-11 0 39 76 8 0 18-76-11 0z"/>
<glyph unicode="&#122;" d="M17 3c-8 0-14 7-14 15l0 477c0 8 6 14 14 14l477 0c8 0 15-6 15-14l0-477c0-8-7-15-15-15z m0 497c-3 0-5-2-5-5l0-477c0-3 2-6 5-6l477 0c3 0 6 3 6 6l0 477c0 3-3 5-6 5z m477 7c7 0 13-5 13-12l0-477c0-7-6-13-13-13l-477 0c-7 0-12 6-12 13l0 477c0 7 5 12 12 12l477 0m-477-497l477 0c4 0 8 4 8 8l0 477c0 4-4 7-8 7l-477 0c-4 0-7-3-7-7l0-477c0-4 3-8 7-8m477 501l-477 0c-9 0-16-7-16-16l0-477c0-9 7-17 16-17l477 0c9 0 17 8 17 17l0 477c0 9-8 16-17 16z m-477-497c-2 0-3 2-3 4l0 477c0 2 1 3 3 3l477 0c2 0 4-1 4-3l0-477c0-2-2-4-4-4z m491 430l-504 0c-2 0-3 1-3 3l0 51c0 7 6 13 13 13l484 0c7 0 12-6 12-13l0-51c0-2-1-3-2-3z m-412-380l144 144z m143 145l2-2-144-144-2 2z m-1 1l4-4-144-144-4 4z m-140-151l-7 7 147 147 7-7z m-1 7l1-1 141 141-1 1z m-3 94l4 0 0-96-4 0z m0 2l5 0 0-101-5 0z m7-103l-9 0 0 105 9 0z m-5 4l1 0 0 97-1 0z m0 3l96 0 0-4-96 0z m-2 0l101 0 0-5-101 0z m103-7l-105 0 0 9 105 0z m-101 4l97 0 0 1-97 0z m320 321l-144-144z m-1 1l2-2-144-144-2 2z m-1 1l4-4-144-144-4 4z m-140-151l-7 7 147 147 7-7z m-1 7l1-1 141 141-1 1z m141 142l4 0 0-96-4 0z m0 2l5 0 0-101-5 0z m7-103l-9 0 0 105 9 0z m-5 4l1 0 0 97-1 0z m-96 99l96 0 0-4-96 0z m-2 0l101 0 0-5-101 0z m103-7l-105 0 0 9 105 0z m-101 4l97 0 0 1-97 0z"/>
<glyph unicode="&#66;" d="M432 375l-25 0c-5 0-8-1-12-4l0 14c0 15-10 27-23 27l-29 0c-5 0-8-1-12-3l0 15c0 15-11 27-24 27l-29 0c-5 0-10-2-14-6 0 0-2 0-4-6-2-6 0-6 0-6 0 0-8 2-23 2l-34 0c-18-3-31-9-29-48l0-106c0-9 0-12 0-13l2 3c-13 15-35 39-35 39-9 12-28 13-41 3l-29-23c-13-10-16-28-7-39l110-143 0 0c0-1 1-2 2-2l5-7 8-11c2-3 5-5 7-7 1-1 7-9 10-12l0-53 209 0 31 134c0 0 7 24 7 29l0 169c0 15-9 27-21 27z m13-196c0-4-38-152-38-152l-190 0 0 48-2 3c-6 6-12 14-17 20l-124 160c-6 7-4 18 4 24l29 22c8 6 18 5 24-2l57-62c-1 5 0 22 0 25l0 143c0 8 7 15 15 15l34 0c8 0 16-7 16-15l0-140c4 1 8 2 12 3l0 153c0 9 6 16 13 16l29 0c8 0 14-7 14-16 0 0 0-147 0-147 4 0 7-1 10-1l0 118c3 4 7 7 12 7l29 0c7 0 13-7 13-16l0-133c4-3 7-6 10-9l0 111c2 6 7 10 12 10l25 0c7 0 13-7 13-16z"/>
<glyph unicode="&#67;" d="M215 155l5-33c0-1 0-1 0-1l-13-36-116 0c-5 0-9-4-9-9 0-4 4-8 9-8l122 0c0 0 0 0 0 0l73 0c0 0 0 0 0 0 4 0 7 2 8 6l7 21 24 21 6 12 72 202c0 0 0 0 0 0 0 0 0 1 0 1l25 72c2 3 2 7 1 10-1 5-4 9-8 10l-87 31c-1 0-3 1-4 1-6 0-12-5-14-12l-26-72c0-1 0-1 0-1 0 0 0 0 0 0l-72-202m86-48l-12-11-57 20-2 16 1 17c0 0 0 0 0 0l69 195 81-29-69-195c0 0 0 0 0 0z m109 288l-23-64-82 29 23 64c0 0 0 0 0 0l82-28c0-1 0-1 0-1z"/>
<glyph unicode="&#73;" d="M175 242c-11-13-28-21-45-21-6 0-12 1-17 3-12 3-22 9-29 18-21-12-33-32-33-55 0-10 17-27 78-27 62 0 79 17 79 27 0 23-12 43-33 55z m-86 10c10-13 25-20 40-20 5 0 10 0 14 2 11 3 20 9 27 18l1 2c6 8 9 18 9 29 0 28-22 51-51 51-28 0-51-23-51-51 0-11 4-22 11-31z m394 167l-454 0c-16 0-29-13-29-29l0-268c0-16 13-29 29-29l454 0c16 0 29 13 29 29l0 268c0 16-13 29-29 29z m-295-262c-15-5-36-8-59-8-42 0-88 10-88 38 0 26 13 49 36 63-6 10-9 21-9 33 0 34 28 61 61 61 34 0 62-27 62-61 0-12-3-23-9-33 23-14 36-37 36-63 0-9-5-22-30-30z m134 74l-79 0 0 11 79 0z m119 51l-197 0 0 11 197 0z"/>
<glyph unicode="&#76;" d="M483 93l-454 0c-16 0-29 13-29 29l0 268c0 16 13 29 29 29l454 0c16 0 29-13 29-29l0-268c0-16-13-29-29-29z m-454 323c-14 0-26-12-26-26l0-268c0-14 12-26 26-26l454 0c14 0 26 12 26 26l0 268c0 14-12 26-26 26z m227-176c-2 0-3 1-3 3l0 100c0 1 1 3 3 3 2 0 3-2 3-3l0-100c0-2-1-3-3-3z m36 63c0 0-1 1-2 1l-35 36c-1 1-1 3 0 4 1 1 3 1 4 0l36-35c1-2 1-4 0-5-1 0-2-1-3-1z m-72 0c-1 0-2 1-3 1-1 1-1 3 0 5l36 35c1 1 3 1 4 0 1-1 1-3 0-4l-35-36c-1 0-2-1-2-1z m77 71l-82 0c-1 0-3 1-3 3 0 2 2 3 3 3l82 0c1 0 3-1 3-3 0-2-2-3-3-3z"/>
<glyph unicode="&#77;" d="M145 462l351 0 0-33 14 0 0 82-14 0 0-33-351 0 0 33-14 0 0-82 14 0z m350-80l-350 0c-8 0-15-6-15-15l0-349c0-8 7-15 15-15l350 0c8 0 15 7 15 15l0 349c0 9-7 15-15 15z m0-364c0 0 0-1 0-1l-350 0c0 0 0 1 0 1l0 349c0 1 0 1 0 1l350 0c0 0 0 0 0-1z m-491 348l32 0 0-350-32 0 0-14 81 0 0 14-33 0 0 350 33 0 0 14-81 0z"/>
<glyph unicode="&#78;" d="M425 279c0 0 0 1 0 2l0 0c2 99-76 141-95 147-19 7-39 13-56 13-110 5-159-99-160-100-2-5 0-10 5-13 4-2 10 0 12 5 1 1 44 94 142 90 18-1 34-5 48-11 44-19 66-41 81-92 3-13 5-27 4-43-4-97-101-134-136-136-6 0-11 0-16 0l52 50c4 4 4 10 0 14-3 3-9 3-13 0l-67-68c-2-1-3-4-3-6 0-3 1-5 3-7l62-62c3-4 9-4 13 0 3 4 3 10 0 13l-47 47c5 0 11 1 18 1 45 2 147 45 153 152l0 0c0 2 0 3 0 4z"/>
<glyph unicode="&#79;" d="M445 489l-138 0c-5 0-9-4-9-9 0-5 4-9 9-9l138 0c18 0 38-19 38-37l0-115c0-23 0-33-5-42-5-11-17-22-39-44l-207-207c-16-16-31-3-34 0l-161 161c-3 3-16 17 0 33l18 18c49 49 182 182 189 190 4 3 4 9 0 12-3 4-9 4-12 0-8-7-140-140-190-189l-18-18c-11-12-15-26-10-41 3-10 10-17 10-18l162-161c0-1 7-8 18-11 4-1 8-2 12-2 10 0 20 4 28 13l208 207c47 47 48 49 48 99l0 115c0 28-27 55-55 55z m-69-161c-20 0-37 16-37 37 0 5-4 9-9 9-5 0-9-4-9-9 0-31 25-55 55-55 31 0 55 24 55 55 0 30-24 55-55 55-5 0-9-4-9-9 0-5 4-9 9-9 21 0 37-17 37-37 0-21-16-37-37-37z m-276 5c1 0 1 0 2 0 5 1 8 6 7 11-14 55-11 102 9 127 12 15 29 23 51 23 54 0 163-98 201-136 4-3 9-3 13 0 3 4 3 10 0 13-6 6-142 141-214 141-27 0-50-10-65-29-24-31-28-82-13-143 1-4 5-7 9-7z"/>
<glyph unicode="&#80;" d="M312 262l-98 220c-2 3-7 5-10 3-4-1-6-6-4-10l97-216-97-217c-2-4 0-9 4-10 3-2 8 0 10 4l98 219c1 1 1 2 1 4 0 1 0 2-1 3z"/>
<glyph unicode="&#81;" d="M200 262l98 220c2 3 7 5 10 3 4-1 6-6 4-10l-97-216 97-217c2-4 0-9-4-10-3-2-8 0-10 4l-98 219c-1 1-1 2-1 4 0 1 0 2 1 3z"/>
<glyph unicode="&#82;" d="M483 94l-454 0c-16 0-29 13-29 29l0 266c0 16 13 29 29 29l454 0c16 0 29-13 29-29l0-266c0-16-13-29-29-29z m-480 157l416 0 0 48-416 0z"/>
<glyph unicode="&#84;" d="M483 93l-454 0c-16 0-29 13-29 29l0 268c0 16 13 29 29 29l454 0c16 0 29-13 29-29l0-268c0-16-13-29-29-29z m-454 323c-14 0-26-12-26-26l0-268c0-14 12-26 26-26l454 0c14 0 26 12 26 26l0 268c0 14-12 26-26 26z m218-127l191 0 0-3-191 0z m0-51l72 0 0-3-72 0z m-35-47l-18 0c-6 0-6 9-6 11l0 8c-15-1-38-3-60-3-23 0-45 2-60 3l0-8c0-7-3-11-6-11l-19 0c-3 0-5 4-5 11l0 14c-8 25-2 50 4 67l-6 1c-3 0-6 4-6 8l0 7c0 4 3 7 7 7l16 0c1 0 1 0 1 0 5 7 9 14 14 18 11 12 52 12 60 12 8 0 49 0 60-12 4-4 9-11 14-18 0 0 0 0 1 0l16 0c2 0 3 0 5-2 1-1 2-3 2-5l0-7c0-4-3-8-6-8l-6-2c6-16 12-41 4-66l0-14c0-7-2-11-6-11z m-21 23l0-12c0-3 1-7 3-7l18 0c1 0 2 2 2 7l0 15 0 0c9 25 2 50-4 66l-1 2 10 2c2 0 3 2 3 5l0 7c0 1 0 2-1 3 0 0-1 1-2 1l-16 0c-1 0-1 0-2 0l-1-1-1 1c-4 7-9 14-13 19-8 7-35 11-58 11-24 0-50-4-58-11-4-5-9-12-14-19l0-1-2 1c0 0 0 0-1 0l-16 0c-2 0-4-2-4-4l0-7c0-3 2-5 4-5l10-2-1-2c-7-16-13-41-5-66l0-1 0-14c0-5 1-7 2-7l19 0c1 0 2 2 2 7l0 12 2 0c15-2 39-3 62-3 23 0 46 1 62 3z m1 63c-8 0-15-7-15-15 0-8 7-14 15-14 8 0 15 6 15 14 0 8-7 15-15 15z m0-26c-6 0-12 5-12 11 0 7 6 12 12 12 6 0 11-5 11-12 0-6-5-11-11-11z m-128 26c-8 0-15-7-15-15 0-8 7-14 15-14 8 0 15 6 15 14 0 8-7 15-15 15z m0-26c-7 0-12 5-12 11 0 7 5 12 12 12 6 0 11-5 11-12 0-6-5-11-11-11z m135 30l3 0-1 2c-7 15-16 27-22 33-5 5-27 9-51 9-25 0-46-4-51-9-7-6-16-18-22-33l-1-2 2 0c8-1 21 0 35 0 11 1 24 2 37 2 13 0 25-1 37-2 9 0 18-1 25-1 4 0 7 0 9 1z m-71 5c-13 0-26-1-37-1-13-1-25-2-32-1 6 13 15 24 20 30 3 3 21 7 49 7 28 0 45-4 49-7 5-6 13-17 20-30-8-1-19 0-32 1-11 0-24 1-37 1z"/>
<glyph unicode="&#85;" d="M483 93l-454 0c-16 0-29 13-29 29l0 268c0 16 13 29 29 29l454 0c16 0 29-13 29-29l0-268c0-16-13-29-29-29z m-454 323c-14 0-26-12-26-26l0-268c0-14 12-26 26-26l454 0c14 0 26 12 26 26l0 268c0 14-12 26-26 26z m218-277l191 0 0-3-191 0z m93 44c-39 0-85 9-85 34 0 26 14 49 38 62-7 10-10 22-10 34 0 32 25 58 57 58 32 0 58-26 58-58 0-12-4-24-11-34 24-13 38-36 38-62 0-25-45-34-85-34z m-45 94c-23-13-37-35-37-60 0-14 22-31 82-31 61 0 82 17 82 31 0 25-13 47-37 60-11-14-27-22-45-22l0 0c-5 0-11 1-16 2-11 4-21 10-29 20z m1 3l1-1c10-13 26-21 43-21 5 0 10 1 15 2 11 3 21 10 29 20l0 0 0 0c7 10 11 21 11 33 0 30-25 55-55 55-30 0-54-25-54-55 0-12 3-23 10-33z"/>
<glyph unicode="&#56;" d="M483 93l-454 0c-16 0-29 13-29 29l0 268c0 16 13 29 29 29l454 0c16 0 29-13 29-29l0-268c0-16-13-29-29-29z m-454 323c-14 0-26-12-26-26l0-268c0-14 12-26 26-26l454 0c14 0 26 12 26 26l0 268c0 14-12 26-26 26z m139-251l62 27 1-2-1-1-59-26 0-1 60-24-1-3-1 0-62 25 0 4z m76 0l62 27 1-2 0-1-59-26 0-1 59-24-1-3 0 0-62 25 0 4z m76 0l62 27 1-2 0-1-59-26 0-1 60-24-1-3-1 0-62 25 0 4z m77 0l62 27 1-2-1-1-59-26 0-1 60-24-1-3-1 0-62 25 0 4z"/>
<glyph unicode="&#38;" d="M483 93l-454 0c-16 0-29 13-29 29l0 268c0 16 13 29 29 29l454 0c16 0 29-13 29-29l0-268c0-16-13-29-29-29z m-454 323c-14 0-26-12-26-26l0-268c0-14 12-26 26-26l454 0c14 0 26 12 26 26l0 268c0 14-12 26-26 26z m218-127l191 0 0-3-191 0z m0-51l72 0 0-3-72 0z m-118-85c-39 0-85 9-85 34 0 26 14 49 39 62-8 10-11 21-11 34 0 32 26 58 57 58 32 0 58-26 58-58 0-13-4-24-11-34 25-13 39-36 39-62 0-25-46-34-86-34z m-45 94c-23-13-37-35-37-60 0-14 22-31 82-31 61 0 83 17 83 31 0 25-14 47-38 60-11-14-27-22-44-22l-1 0c-5 0-10 1-15 2-12 4-22 10-30 20z m1 3l1-1c11-13 26-21 43-21 5 0 10 1 15 2 11 3 21 10 29 19l1 1 0 0c7 10 10 21 10 33 0 30-24 55-55 55-30 0-54-25-54-55 0-12 3-23 10-33z"/>
<glyph unicode="&#39;" d="M483 93l-454 0c-16 0-29 13-29 29l0 268c0 16 13 29 29 29l454 0c16 0 29-13 29-29l0-268c0-16-13-29-29-29z m-454 323c-14 0-26-12-26-26l0-268c0-14 12-26 26-26l454 0c14 0 26 12 26 26l0 268c0 14-12 26-26 26l-454 0z m109-188c-5-5-11-7-18-8l-2-21-3 0-1 1 2 20c-8 1-15 3-20 7l0 3 1 0c5-4 12-6 20-6l3 39c-5 2-9 4-12 6-3 2-5 4-7 7-2 3-3 6-3 10 0 4 1 7 3 10 2 4 5 6 9 8 4 2 8 3 14 3l2 26 3 0 0-1-2-25c5-1 10-2 15-4l-1-3-1 0c-5 2-9 3-13 4l-3-39c6-3 11-6 15-9 4-3 6-8 6-13 0-6-3-11-7-15z m-32 47c3-2 8-5 14-8l3 37c-4 0-8-1-12-3-3-2-6-4-7-7-2-3-3-6-3-9 0-4 2-7 5-10z m29-45c4 4 6 8 6 13 0 4-2 8-5 10-3 3-7 6-13 8l-3-37c6 0 11 2 15 6z m112 59l191 0 0-3-191 0z m0-51l72 0 0-3-72 0z"/>
<glyph unicode="&#40;" d="M483 94l-454 0c-16 0-29 13-29 29l0 266c0 16 13 29 29 29l454 0c16 0 29-13 29-29l0-266c0-16-13-29-29-29z m-480 154l0-125c0-15 12-26 26-26l454 0c14 0 26 11 26 26l0 266c0 15-12 26-26 26l-454 0c-14 0-26-11-26-26l0-87 419 0 0-54z m0 3l416 0 0 48-416 0z"/>
<glyph unicode="&#41;" d="M483 93l-454 0c-16 0-29 13-29 29l0 268c0 16 13 29 29 29l454 0c16 0 29-13 29-29l0-268c0-16-13-29-29-29z m-454 323c-14 0-26-12-26-26l0-268c0-14 12-26 26-26l454 0c14 0 26 12 26 26l0 268c0 14-12 26-26 26z m146-194l-17 68 4 0 0-5 14-59 1 0 31 59 2 5 3 0-35-68z m51 0l-3 0 3 21 6 47 3 0-6-47z m65 65l-1-2-1 0c-3 1-7 2-11 2-4 0-7 0-10-2-3-1-5-3-6-6-2-2-3-4-3-7 0-3 2-6 4-8 2-2 5-4 10-6 3-2 6-3 8-4 2-2 4-3 5-6 1-2 2-4 2-7 0-4-1-7-3-10-2-2-4-5-8-7-3-1-7-2-11-2-6 0-12 1-16 5l0 3 1 0c4-4 9-5 15-5 4 0 7 0 10 2 3 1 5 4 7 6 2 3 2 5 2 8 0 3-1 6-3 8-2 2-6 4-10 6-4 2-6 3-8 5-2 1-4 3-5 5-2 2-2 4-2 7 0 3 1 6 2 9 2 3 5 5 8 7 3 1 7 2 11 2 4 0 9-1 13-3z m59-65l0 5-5 17-32 0-9-17-2-5-3 0 35 68 3 0 17-68z m-15 64l0 0-20-39 30 0z"/>
<glyph unicode="&#105;" d="M254 112c-59 0-128 13-128 50 0 40 21 74 58 94-11 15-17 32-17 51 0 48 39 87 87 87 48 0 87-39 87-87 0-19-6-36-17-51 37-20 58-54 58-94 0-37-69-50-128-50z m-68 140c-35-18-56-51-56-90 0-21 33-46 124-46 91 0 123 25 123 46 0 39-20 72-55 90-17-20-41-32-68-32l0 0c-8 0-16 1-24 3-17 5-32 15-44 29z m2 6l1-1c16-21 39-32 65-32 7 0 15 1 22 3 17 4 32 14 43 29l1 1 0 0c11 14 16 31 16 49 0 45-37 82-82 82-45 0-82-37-82-82 0-18 5-35 16-49z m66-149c-60 0-131 14-131 53 0 40 21 75 57 95-10 15-16 32-16 50 0 49 41 89 90 89 49 0 89-40 89-89 0-18-5-35-15-50 36-20 56-55 56-95 0-18-15-32-43-41-23-8-54-12-87-12z m-68 140c-34-18-53-50-53-87 0-30 61-43 121-43 60 0 121 13 121 43 0 37-19 69-53 87-17-20-41-31-68-31-8 0-17 1-25 3-17 5-32 15-43 28z m68 138c-44 0-80-36-80-80 0-17 6-34 16-48l1-1c15-19 38-31 63-31 7 0 14 1 21 3 17 5 31 14 42 28l2 3 0 0c10 13 15 29 15 46 0 44-36 80-80 80z"/>
<glyph unicode="&#89;" d="M421 261c-37 34-37 62-69 88-2 1-4 3-6 4 4 4-10 41-33 50-21 9-23-21-23-32-21 3-39 3-39 3l-1 0c0 0-17 0-39-3 0 11-1 41-23 33-25-10-34-37-30-50-3-1-6-3-9-5-31-26-31-54-69-89-37-35-72-40-72-40 0 0 8-18 23-40 63 4 88 133 173 150 4 1 8 2 12 2 15 4 54 4 69 0 4 0 8-1 12-2 85-17 111-146 174-149 15 21 22 39 22 39 0 0-34 6-72 41z m-108-12c0 1 1 2 1 3 0 3-3 6-6 6-4 0-7-3-7-6 0-1 1-2 1-3-4 2-8 7-8 12 0 7 6 12 14 12 7 0 13-5 13-12 0-5-3-10-8-12z m-114 0c1 1 1 2 1 3 0 3-3 6-6 6-4 0-6-3-6-6 0-1 0-2 0-3-4 2-7 7-7 12 0 7 6 12 13 12 7 0 13-5 13-12 0-5-3-10-8-12z m48-8c-72 0-145-116-171-109 18-14 43-26 70-26l209 0c27 0 50 12 69 26-27-8-102 109-177 109z m2-86c-20 0-36 10-36 23 0 14 16 42 36 42 20 0 37-28 37-42 0-13-17-23-37-23z"/>
<glyph unicode="&#86;" d="M142 346c12 16 26 30 41 41-1 1-2 3-4 4-30 20-47 29-68 34-25 4-39-36-39-75 0-16 4-31 10-43 17 2 38 12 60 39z m234 0c22-27 43-37 60-39 6 12 10 27 10 43 0 39-14 79-39 75-21-5-38-14-68-34-2-1-3-2-4-4 15-11 28-25 41-41z m-15 41c-29 22-62 35-100 35l-2 0c-38 0-72-13-102-35 11-14 0-42-18-66 33 19 72 33 114 33 49 0 95-19 133-42-21 25-38 59-25 75z m101-80c-8-15-21-26-35-26 28-24 46-48 49-61 19 31 30 65 30 99 0 0-18-15-44-12z m-406 0c-26-4-45 11-45 11 0-34 12-68 31-99 3 13 19 38 45 62-12 2-23 12-31 26z m101 80c-15-11-28-25-41-41-21-27-42-37-60-39 8-14 19-24 31-26 15 14 32 28 52 40 18 24 29 52 18 66z m305-80c-18 2-39 12-60 39-13 16-27 30-41 41-13-15 4-50 25-75 15-10 29-20 41-31 14 0 27 11 35 26z m-202-94c-95 0-135-63-142-76 44-35 96-56 141-56l0 0c45 0 97 22 141 56-8 15-47 76-140 76z m5-87c-2 0-4-1-6-1-2 0-4 1-6 1-21 8-26 35-21 47 4 9 18 8 27 7 9 1 23 2 27-7 5-12 0-39-21-47z m-49 133c0 6 6 13 14 9 2-1 4-3 5-6 1 3 2 7 2 11 0 14-10 25-23 25-12 0-22-8-22-20-1-14 4-22 12-27 7-2 13-3 17-1-3 2-5 5-5 9z m79 39c-13 0-22-8-22-20 0-6 0-10 1-14 2 4 7 7 13 4 3-1 5-5 5-11 0-3-2-5-4-7 18-6 30 10 30 23 0 14-10 25-23 25z"/>
<glyph unicode="&#88;" d="M425 286l0-218c0-14-12-26-27-26l-367 0c-15 0-27 12-27 26l0 218c0 14 12 26 27 26l367 0c15 0 27-12 27-26z m-413-218c0-10 9-18 19-18l367 0c10 0 18 8 18 18l0 218c0 10-8 18-18 18l-367 0c-10 0-19-8-19-18z m377 165c0-22-12-42-33-53 5-7 8-16 8-25 0-26-21-47-47-47-26 0-47 21-47 47 0 9 2 18 7 25-20 11-32 31-32 53 0 22 37 30 72 30 35 0 72-8 72-30z m-45-50l5 3c19 9 31 26 31 47 0 15-33 22-63 22-31 0-64-7-64-22 0-21 12-38 32-47l5-3-3-4c-6-7-9-15-9-24 0-21 17-39 39-39 21 0 39 18 39 39 0 9-3 17-9 24z m-283 29l137 0 0-8-137 0z m58 42l79 0 0-8-79 0z m285 216c3-3 3-8 0-11l-38-38c5 0 9 0 15 0 37-2 120-37 125-125 3-90-81-130-82-130-4-2-10 12-7 14 1 0 77 35 73 115-3 80-82 109-110 111-5 0-9 0-13 0l42-41c3-3 3-8 0-11-3-2-8-2-11 0l-54 55c-2 1-3 3-3 5 0 2 1 4 3 6l50 50c3 3 8 3 10 0z"/>
<glyph unicode="&#90;" d="M7 318c4 3 9 3 12 0l43-42c0 5 0 10 0 16 3 42 42 135 140 140l1-17c-89-4-122-93-124-124 0-6 0-10 0-15l46 47c3 4 9 4 12 0 3-3 3-8 0-11l-61-61c-2-2-4-3-7-3-2 0-4 1-6 3l-56 56c-3 3-3 8 0 11z m218 173l243 0c17 0 30-13 30-30l0-410c0-17-13-30-30-30l-243 0c-16 0-30 13-30 30l0 410c0 17 14 30 30 30z m243-461c12 0 21 9 21 21l0 410c0 12-9 21-21 21l-243 0c-11 0-20-9-20-21l0-410c0-12 9-21 20-21z m-184 421c25 0 47-13 59-36 9 5 18 8 28 8 29 0 53-23 53-52 0-29-24-53-53-53-10 0-19 3-28 8-12-22-34-36-59-36-25 0-34 42-34 81 0 38 9 80 34 80z m56-50l-3 5c-10 22-30 36-53 36-17 0-25-37-25-71 0-35 8-71 25-71 23 0 43 13 53 35l3 6 4-4c8-6 17-10 27-10 24 0 44 20 44 44 0 23-20 43-44 43-10 0-19-3-27-10z m-33-163l10 0 0-153-10 0z m-46 0l9 0 0-88-9 0z"/>
<glyph unicode="&#48;" d="M500 318c-3 3-8 3-12 0l-42-42c0 5 0 10 0 16-3 42-42 135-141 140l0-17c89-4 122-93 123-124 1-6 1-10 1-15l-46 47c-3 4-9 4-12 0-3-3-3-8 0-11l61-61c2-2 4-3 6-3 2 0 4 1 7 3l56 56c3 3 3 8-1 11z m-222-297l-244 0c-16 0-29 13-29 30l0 410c0 17 13 30 29 30l244 0c16 0 29-13 29-30l0-410c0-17-13-30-29-30z m-244 461c-11 0-20-9-20-21l0-410c0-12 9-21 20-21l244 0c11 0 20 9 20 21l0 410c0 12-9 21-20 21z m185-421c-25 0-47 13-59 36-9-5-19-8-29-8-29 0-52 23-52 52 0 29 23 53 52 53 10 0 20-3 29-8 12 22 34 36 59 36 25 0 34-42 34-81 0-38-9-80-34-80z m-56 50l3-5c10-22 30-36 53-36 17 0 24 37 24 71 0 35-7 71-24 71-23 0-43-13-53-35l-3-6-5 4c-7 6-17 10-27 10-24 0-43-20-43-44 0-23 19-43 43-43 10 0 20 3 27 10z m23 316l9 0 0-153-9 0z m47-65l9 0 0-88-9 0z"/>
<glyph unicode="&#104;" d="M483 93l-454 0c-16 0-29 13-29 29l0 268c0 16 13 29 29 29l454 0c16 0 29-13 29-29l0-268c0-16-13-29-29-29z m-454 323c-14 0-26-12-26-26l0-268c0-14 12-26 26-26l454 0c14 0 26 12 26 26l0 268c0 14-12 26-26 26z m169-146c-10 0-18-8-18-19l0 0c0-12 8-20 19-20 7 0 12 2 16 7l0 0-6 5 0 0c-3-3-6-4-10-4-5 0-9 3-10 8l27 0 0 1c0 1 0 1 0 2 0 10-5 20-18 20z m0-7c6 0 9-5 9-9l-18 0c1 5 5 9 9 9z m45 7c-5 0-9-1-12-5l0 5-9 0 0-38 9 0 0 21c0 5 4 9 8 9 5 0 8-3 8-9l0-21 9 0 0 24c0 9-5 14-13 14z m32 10l-10 0 0-10-7 0 0-8 7 0 0-20c0-7 4-11 11-11 3 0 6 1 8 2l0 0 0 8 0 0c-2-1-3-1-5-1-3 0-4 1-4 4l0 18 10 0 0 8-10 0z m37-10c-6 0-10-2-12-7l0 7-10 0 0-38 10 0 0 14c0 9 4 15 12 15l1 0 0 9-1 0c0 0 0 0 0 0z m22 0c-11 0-20-8-20-19l0-1c0-10 9-19 20-19 12 0 20 9 20 20l0 0c0 11-8 19-20 19z m-11-19c0 6 5 11 11 11 6 0 11-5 11-11l0-1c0-6-4-11-11-11-6 0-11 5-11 12z m58 19c-5 0-9-2-12-6l0 6-9 0 0-54 9 0 0 21c3-4 7-6 12-6 9 0 18 7 18 20l0 0c0 13-9 19-18 19z m8-19l0 0c0-7-4-12-10-12-6 0-10 5-10 12l0 0c0 6 4 11 10 11 6 0 10-5 10-11z m31 19c-7 0-11-1-14-3l-1 0 3-8 0 1c4 1 7 2 11 2 5 0 9-3 9-8l0 0c-3 1-6 1-10 1-10 0-16-4-16-12l0 0c0-8 7-12 14-12 4 0 8 2 11 5l0-4 10 0 0 22c0 5-2 9-5 12-2 3-7 4-12 4z m-2-32c-4 0-7 2-7 5l0 0c0 4 3 6 9 6 3 0 6-1 8-1l0-2c0-5-4-8-10-8z m50 32l-9-27-10 27-10 0 15-38-2-5c-1-3-2-4-5-4-1 0-3 1-4 1l-1 1-3-7 0-1c3-1 6-2 9-2 6 0 10 3 12 9l0 0 18 46z m-340 27c-13 0-25-8-30-19l-12-25c-4-7-10-11-18-11-12 0-21 10-21 21 0 12 9 21 21 21 3 0 6-1 9-2l5 12c-4 2-9 3-14 3-19 0-34-15-34-34 0-19 15-34 34-34 12 0 22 6 28 15 1 2 1 3 2 4l11 24c4 7 11 12 19 12 12 0 21-9 21-21 0-11-9-21-21-21-4 0-7 1-11 3l-5-12c5-2 11-4 16-4 19 0 34 15 34 34 0 19-15 34-34 34z m-46-2l-16-40 13 0 17 40z m28-37l-17-40 13 0 17 40z"/>
<glyph unicode="&#106;" d="M483 93l-454 0c-16 0-29 13-29 29l0 268c0 16 13 29 29 29l454 0c16 0 29-13 29-29l0-268c0-16-13-29-29-29z m-454 323c-14 0-26-12-26-26l0-268c0-14 12-26 26-26l454 0c14 0 26 12 26 26l0 268c0 14-12 26-26 26z m305-47c-27 0-52-10-71-26 14-14 26-32 32-52l-9 0c-6 18-17 34-30 47l-7 5c-19 16-44 26-71 26-62 0-112-51-112-113 0-62 50-113 112-113 27 0 52 10 71 26l7 5c13 13 24 29 29 47l10 0c-6-20-18-38-32-52 19-16 44-26 71-26 62 0 112 51 112 113 0 62-50 113-112 113z m-217-139l6 35-15-35-11 0-3 36-7-36-12 0 10 50 18 0 3-31 13 31 19 0-10-50z m40 0l-2 2c-2-2-3-2-9-3-6 0-13 4-12 13 3 17 23 14 26 15 2 6-3 5-7 5-4 1-11-1-14-1l2 9c7 2 11 1 15 2 19 0 17-14 16-20l-5-22z m46 11c-2-12-16-11-18-11-4 0-9 0-14 1l2 9c5-2 13-1 15-1 4 0 4 4 1 6-2 1-5 3-9 5-3 1-5 4-4 12 2 10 16 10 17 10 2 0 6 0 12-2l-3-8c-3 0-9 0-11 0-4-1-3-5 0-6 2-1 6-3 8-4 2-2 5-5 4-11z m19-10c-2-1-5-2-8-2-3 0-11 2-9 13l8 40 11 0-2-11 6 0-2-9-6 0-3-17c-1-3 0-6 6-5z m26 8c4 0 11 1 12 1l-1-9c-3-1-10-2-15-1-19 0-19 18-19 21 1 2 3 20 21 20 20 0 17-16 16-23l-25 0c-1-9 6-9 11-9z m29 9l-3-18-12 0 0 0 8 41 10 0 1-4c1 2 5 4 10 4l-2-11c-3 0-9 1-12-12z m43-6l4-10c-4-2-8-2-14-2-12 0-25 10-19 31 4 16 18 22 26 21 9 0 12-3 15-6l-7-8c-3 2-5 2-9 2-4 0-12-3-14-14-2-12 7-18 18-14z m29-12l-2 2c-2-2-4-2-9-3-6 0-14 4-12 13 3 17 23 14 26 15 1 6-3 5-7 5-4 1-11-1-14-1l2 9c7 2 11 1 15 2 19 0 17-14 16-20l-5-22z m29 19l-3-19-11 0 7 41 10 0 1-4c2 2 5 4 11 4l-3-11c-3 0-8 1-12-11z m36-19l-1 3c-3-2-6-3-10-3-8 0-16 11-12 24 5 19 15 17 21 17 6 0 7-3 9-5l3 16 12 0-10-52z m-167 33c-5 0-8-2-9-7l14 0c1 4-1 7-5 7z m-98-16c-4-2-5-7-1-8 3-2 9 1 10 5l0 4c-1 0-6 2-9-1z m254 5c-2-6 1-11 5-11 5 0 7 3 9 8 1 4 1 9 0 11-4 4-12 1-14-8z m-62-5c-4-2-5-7-1-8 3-2 9 1 9 5l1 4c-2 0-6 2-9-1z"/>
</font>
</defs>
</svg>
